<?xml version="1.0" standalone="no"?>
<!DOCTYPE svg PUBLIC "-//W3C//DTD SVG 20010904//EN"
 "http://www.w3.org/TR/2001/REC-SVG-20010904/DTD/svg10.dtd">
<svg version="1.0" xmlns="http://www.w3.org/2000/svg"
 width="161.000000pt" height="161.000000pt" viewBox="0 0 161.000000 161.000000"
 preserveAspectRatio="xMidYMid meet">
<metadata>
Created by potrace 1.11, written by Peter Selinger 2001-2013
</metadata>
<g transform="translate(0.000000,161.000000) scale(0.100000,-0.100000)"
fill="#000000" stroke="none">
<path d="M650 1595 c8 -9 7 -13 -2 -12 -18 2 -132 -36 -136 -45 -2 -5 -10 -8
-18 -8 -22 0 -123 -58 -184 -105 -78 -62 -180 -177 -180 -204 0 -5 -6 -16 -13
-23 -16 -17 -54 -97 -63 -134 -4 -16 -10 -34 -15 -39 -20 -26 -33 -110 -36
-232 -3 -97 -1 -133 8 -133 6 0 9 -6 6 -14 -3 -8 1 -20 8 -26 8 -7 14 -15 13
-18 -1 -4 1 -14 5 -22 3 -8 11 -33 18 -55 29 -93 94 -191 189 -286 69 -68 183
-148 203 -141 4 1 7 -3 7 -8 0 -6 8 -10 18 -10 10 0 22 -4 28 -9 5 -5 40 -19
77 -31 46 -16 64 -26 55 -32 -7 -5 54 -8 145 -7 144 1 161 3 207 25 27 13 55
24 61 24 19 0 199 90 199 100 0 6 6 10 13 10 16 0 124 102 171 161 43 55 108
183 130 258 9 29 20 59 24 65 12 14 13 22 19 144 4 100 3 106 -37 223 -39 115
-77 196 -106 230 -8 8 -14 19 -14 23 0 7 -55 69 -100 113 -39 38 -120 98 -170
125 -43 24 -138 63 -152 63 -3 0 -10 3 -14 8 -4 4 -15 7 -25 7 -9 0 -20 7 -23
16 -5 14 -9 14 -23 3 -13 -11 -15 -11 -9 -1 6 10 -22 13 -144 11 -123 -1 -149
-3 -140 -14z"/>
</g>
</svg>
