<svg width="184" height="200" viewBox="0 0 184 200" fill="none" xmlns="http://www.w3.org/2000/svg">
<path fill-rule="evenodd" clip-rule="evenodd" d="M112.013 0.613707C111.957 0.704473 111.466 0.873566 110.924 0.988752C110.381 1.10394 109.898 1.30021 109.85 1.42554C109.802 1.5504 109.612 1.65268 109.428 1.65268C109.244 1.65268 109.001 1.8015 108.887 1.9835C108.774 2.16549 108.619 2.31385 108.544 2.31385C108.267 2.31385 107.113 3.39706 107.11 3.66014C107.109 3.80943 106.996 3.97437 106.859 4.0269C106.705 4.08587 106.612 4.3379 106.612 4.6959C106.612 5.01151 106.537 5.3156 106.446 5.37181C106.355 5.42802 106.281 5.61232 106.281 5.78095C106.281 5.95004 106.202 6.11407 106.107 6.14632C105.921 6.20806 105.559 9.55582 105.619 10.6611C105.638 11.0247 105.676 13.591 105.703 16.3638C105.911 37.9837 106.009 44.3876 106.136 44.435C106.216 44.4655 106.281 44.9907 106.281 45.6026C106.281 47.6552 107.252 48.9752 109.54 50.0326C110.984 50.6998 113.092 51.2209 113.187 50.9343C113.225 50.82 113.63 50.744 114.202 50.744C114.726 50.744 115.519 50.633 115.966 50.4975C116.412 50.3621 116.984 50.2506 117.237 50.2496C117.492 50.2487 117.739 50.1372 117.791 49.9999C117.844 49.8635 117.978 49.752 118.089 49.752C118.2 49.752 118.391 49.5659 118.513 49.3387C118.634 49.1116 118.8 48.9255 118.882 48.9255C119.417 48.9255 121.157 46.9581 121.157 46.3522C121.157 46.237 121.232 46.1181 121.324 46.0873C121.541 46.0154 121.816 44.3272 121.817 43.068C121.818 42.528 121.908 41.6494 122.019 41.1158C122.189 40.2916 122.183 40.1229 121.977 39.9953C121.779 39.8718 121.772 39.7852 121.942 39.5115C122.056 39.3282 122.149 38.737 122.149 38.198C122.149 37.5755 122.073 37.1825 121.942 37.1212C121.794 37.0521 121.789 36.9991 121.923 36.9346C122.051 36.8733 122.067 36.6508 121.972 36.2324C121.887 35.8597 121.895 35.5984 121.991 35.5648C122.233 35.48 122.188 33.5956 121.942 33.5067C121.777 33.4468 121.777 33.3615 121.942 33.0819C122.201 32.6428 122.188 31.5034 121.916 30.7436C121.644 29.9857 120.895 29.7687 119.527 30.0515C118.477 30.2681 115.601 30.3197 115.48 30.1239C115.22 29.7018 113.751 30.122 113.694 30.6348C113.319 34.037 113.783 35.5372 115.215 35.5372H115.868L115.885 38.3882C115.905 41.5204 115.902 41.4715 116.097 42.3506C116.349 43.4859 115.701 45.1566 114.83 45.6187C113.788 46.1711 112.231 45.9914 112.232 45.3188C112.233 45.075 112.106 44.2623 111.95 43.5117C111.726 42.4308 111.705 42.0014 111.846 41.4457C112.08 40.5275 111.947 28.3952 111.702 28.2436C111.589 28.174 111.593 28.1187 111.712 28.0777C111.963 27.992 112 21.0247 111.751 20.7754C111.508 20.533 111.51 17.5774 111.753 17.4272C111.871 17.3539 111.878 17.2774 111.771 17.2106C111.663 17.1429 111.659 16.7674 111.762 16.1187C111.868 15.4418 111.863 15.111 111.744 15.0718C111.498 14.9894 111.512 11.7826 111.758 11.7006C111.899 11.6536 111.896 11.3472 111.749 10.5013C111.554 9.38535 111.572 9.02781 111.92 7.01113C112.097 5.9846 112.563 5.45474 113.29 5.45474C113.435 5.45474 113.554 5.3801 113.554 5.28933C113.554 4.9553 114.398 5.13729 114.894 5.57868C116.044 6.60015 116.218 7.34702 116.347 11.8052L116.446 15.2631L116.942 15.5533C117.338 15.7851 117.846 15.8459 119.467 15.8556C121.911 15.8703 121.77 16.0389 121.807 13.0547C121.821 11.9171 121.904 10.9671 121.991 10.9367C122.201 10.8634 122.195 10.0825 121.983 10.0825C121.893 10.0825 121.818 9.97095 121.818 9.83457C121.818 9.69819 121.893 9.58669 121.983 9.58669C122.075 9.58669 122.149 9.29366 122.149 8.9352C122.149 8.5772 122.075 8.23809 121.983 8.18188C121.893 8.12567 121.818 7.8096 121.818 7.47971C121.818 6.82914 121.471 4.92765 121.328 4.79357C121.279 4.74796 121.095 4.413 120.919 4.04947C120.512 3.20862 118.866 1.48774 118.469 1.48774C118.304 1.48774 118.018 1.34813 117.835 1.17766C117.333 0.709541 112.257 0.217928 112.013 0.613707ZM40.9919 1.13757L40.4132 1.23986L40.3059 5.28933C40.2469 7.51657 40.1437 9.55121 40.0769 9.81107C39.9986 10.1133 40.0239 10.3257 40.1465 10.4017C40.3828 10.5478 40.451 12.4 40.5819 22.2277C40.6362 26.3168 40.7321 29.7009 40.7952 29.7484C40.9928 29.8981 40.9892 31.4568 40.7901 31.6964C40.6758 31.8346 40.6616 31.9705 40.7546 32.0374C40.9509 32.1788 40.9951 33.3883 40.8039 33.3883C40.7256 33.3883 40.6611 33.6117 40.6611 33.8845C40.6611 34.1572 40.7357 34.3802 40.8265 34.3802C40.9173 34.3802 40.9919 34.6032 40.9919 34.876C40.9919 35.1612 40.9039 35.3731 40.785 35.3745C40.6288 35.3764 40.6261 35.4072 40.7749 35.5021C40.9196 35.5938 40.9979 37.5912 41.0721 43.0616C41.2016 52.6754 41.102 51.6296 41.901 51.7646C42.9293 51.9383 45.093 51.9194 45.2068 51.7355C45.263 51.6448 45.78 51.5701 46.3554 51.5701C47.6123 51.5701 47.7999 51.261 47.3364 49.9529C47.0963 49.2756 47.0452 47.9289 46.9443 39.6696C46.8259 29.9682 46.8738 28.5795 47.2493 30.815C47.3649 31.502 47.5663 32.1705 47.6967 32.3014C47.8823 32.4866 47.8957 32.6409 47.7584 33.0017C47.6345 33.3279 47.6345 33.4813 47.7584 33.5228C47.8547 33.555 47.9339 33.8352 47.9339 34.1462C47.9339 34.4567 48.0081 34.7106 48.0993 34.7106C48.1924 34.7106 48.2643 35.1792 48.2643 35.785C48.2643 36.3762 48.3288 36.8595 48.4076 36.8595C48.4864 36.8595 48.6453 37.6778 48.7605 38.6776C48.8757 39.6779 49.0434 40.4957 49.1337 40.4957C49.2277 40.4957 49.2554 40.7076 49.1982 40.9919C49.1439 41.2647 49.1632 41.4877 49.2411 41.4877C49.4314 41.4877 49.5535 41.9516 49.8285 43.7154C49.9557 44.5313 50.1391 45.2252 50.2363 45.2579C50.3409 45.2925 50.4132 45.8187 50.4132 46.5425C50.4132 47.2497 50.4832 47.7685 50.5786 47.7685C50.6694 47.7685 50.744 48.0196 50.744 48.3265C50.744 48.6329 50.8555 49.2001 50.9919 49.5866C51.1283 49.9732 51.2398 50.662 51.2398 51.1168V51.9442L51.942 51.8397C52.3285 51.7821 53.6753 51.6858 54.9354 51.6263L57.2258 51.5181L57.1216 50.733C57.0645 50.3012 56.8678 49.5134 56.6844 48.9821C56.5015 48.4509 56.2499 47.1613 56.1255 46.1158C56.0016 45.0704 55.8196 44.0089 55.7214 43.7568C55.2524 42.5538 54.2148 37.9975 54.2148 37.1415C54.2148 36.6227 54.1489 36.1983 54.0683 36.1983C53.9877 36.1983 53.8821 35.9938 53.8342 35.7436C53.7859 35.4939 53.6674 34.9916 53.5711 34.6281C53.4748 34.2646 53.3947 33.655 53.3924 33.274C53.3901 32.8934 53.314 32.5354 53.2233 32.4792C53.1321 32.423 53.0579 32.1954 53.0579 31.9738C53.0579 31.7517 52.9837 31.5702 52.8925 31.5702C52.8017 31.5702 52.7271 31.3144 52.7271 31.0016C52.7271 30.6888 52.6635 30.3934 52.5852 30.345C52.5068 30.2967 52.4045 29.5821 52.3575 28.7569C52.2972 27.6985 52.1986 27.1977 52.023 27.0576C51.343 26.5167 51.5982 25.7404 52.5206 25.5432C52.816 25.48 53.0579 25.3658 53.0579 25.2893C53.0579 25.2128 53.2818 25.1009 53.555 25.041C53.8287 24.9811 54.1286 24.7889 54.2222 24.6148C54.3152 24.4401 54.5129 24.2973 54.6603 24.2973C54.9723 24.2973 55.868 23.3519 55.868 23.0229C55.868 22.8999 55.9795 22.7566 56.1158 22.7045C56.2522 22.652 56.3637 22.5138 56.3637 22.3968C56.3637 22.2797 56.4669 22.1447 56.5932 22.0959C57.37 21.7978 57.3709 9.37659 56.5941 6.37853C56.1914 4.82537 55.339 3.47124 54.764 3.47124C54.6451 3.47124 54.4553 3.32242 54.342 3.14043C54.2282 2.95889 54.0135 2.81007 53.8646 2.81007C53.7158 2.81007 53.5011 2.69765 53.3873 2.56035C53.2735 2.42351 52.8874 2.26409 52.5294 2.20696C52.1714 2.14983 51.7756 2.00008 51.6503 1.8743C51.3692 1.59371 49.471 1.33431 47.6446 1.3274C46.8493 1.32463 46.2808 1.25322 46.2808 1.15692C46.2808 1.05832 45.6473 0.991516 44.7106 0.991516C43.7739 0.991516 43.1404 1.05832 43.1404 1.15692C43.1404 1.24815 42.88 1.32233 42.5621 1.32233C42.2438 1.32233 41.9834 1.24815 41.9834 1.15692C41.9834 0.980458 41.8913 0.978616 40.9919 1.13757ZM65.4546 1.15692C65.3183 1.24493 64.4774 1.31818 63.5868 1.31957L61.9668 1.32233L61.7272 1.8955C61.4494 2.55989 61.4075 4.1513 61.6604 4.40425C61.7802 4.52404 61.7816 4.89955 61.6655 5.62153C61.5549 6.30896 61.5503 7.3765 61.6526 8.74629C61.7383 9.89032 61.847 16.1818 61.8945 22.7271C61.9816 34.7392 62.0972 39.3388 62.3124 39.3388C62.3769 39.3388 62.3368 39.8783 62.2234 40.5372C62.1101 41.1965 62.0451 41.7812 62.0788 41.8374C62.1129 41.8931 62.152 42.88 62.1654 44.0305C62.1792 45.1925 62.2622 46.1661 62.3525 46.2218C62.4561 46.2859 62.4511 46.3614 62.3386 46.431C62.235 46.495 62.1428 47.3502 62.1143 48.5177L62.0663 50.4957L63.3057 50.6473C66.9373 51.0905 69.6622 50.463 68.6937 49.4065C68.0846 48.7416 68.0274 46.9959 67.8602 23.967C67.827 19.3761 67.7104 14.5899 67.6012 13.3316C67.4566 11.6596 67.452 10.9943 67.5856 10.8606C67.8123 10.634 67.8266 10.0825 67.6063 10.0825C67.5096 10.0825 67.4851 9.78481 67.546 9.34111C67.6128 8.85227 67.5768 8.51454 67.44 8.34913C67.2727 8.14825 67.2732 7.56587 67.4414 5.39162C67.7123 1.88997 67.4934 0.990134 66.3724 0.994281C66.0038 0.995663 65.591 1.06892 65.4546 1.15692ZM25.7459 1.27349C23.362 1.33984 23.2994 1.38269 23.5988 2.73267C23.679 3.09343 23.7103 6.30804 23.6689 9.87604C23.6067 15.2027 23.6325 16.3638 23.8131 16.3638C23.984 16.3638 23.9891 16.4075 23.8347 16.5619C23.573 16.8236 23.5795 17.9626 23.843 18.0856C24.0084 18.1625 24.0084 18.2012 23.843 18.2782C23.7292 18.3311 23.6362 18.5482 23.6362 18.7601C23.6362 18.9725 23.7292 19.1895 23.843 19.2425C24.0084 19.3194 24.0084 19.3581 23.843 19.4351C23.5882 19.554 23.5698 20.1156 23.8177 20.1981C23.9458 20.2409 23.9555 20.6809 23.8509 21.6996C23.7698 22.4921 23.744 23.1409 23.7937 23.1409C23.9942 23.1422 23.9808 27.8234 23.7799 27.9473C23.626 28.0422 23.6251 28.4339 23.7767 29.6959C24.0453 31.9351 24.0527 48.8706 23.7854 49.1931C23.6472 49.3595 23.6463 49.4217 23.7813 49.4217C23.8836 49.4217 23.967 49.676 23.967 49.987C23.967 50.5832 24.8322 51.1089 25.3183 50.8085C25.4289 50.7403 28.0708 50.7035 31.1891 50.7265L36.8595 50.7689V50.3515C36.8595 50.1215 36.7494 49.8718 36.6144 49.7967C36.4025 49.6779 36.413 49.5705 36.6946 49.0015C37.6451 47.0802 37.3493 46.6116 35.1861 46.6116C34.6521 46.6116 34.2148 46.5443 34.2148 46.4619C34.2148 46.3789 33.9435 46.3951 33.6071 46.4983C33.139 46.642 32.9842 46.6388 32.9321 46.4831C32.8441 46.2177 31.9526 46.2214 31.8448 46.4877C31.778 46.6512 31.7296 46.6503 31.6112 46.4821C31.5246 46.3596 30.985 46.2384 30.3335 46.1951C28.9766 46.1057 28.9845 46.1122 29.2457 45.3211C29.4028 44.8442 29.4097 44.5304 29.2734 44.0393C29.0582 43.2648 29.0347 42.1986 29.2305 42.1212C29.3075 42.0908 29.3162 41.2481 29.2503 40.2478C29.1844 39.248 29.1835 38.3924 29.248 38.3472C29.313 38.3016 29.3116 37.7068 29.2448 37.0249C29.1784 36.343 29.1761 35.7293 29.2397 35.6606C29.3038 35.5925 29.3038 35.0345 29.2402 34.4212C29.1683 33.7269 29.1872 33.2671 29.2899 33.203C29.3991 33.1348 29.3932 32.9837 29.2734 32.7593C29.1651 32.5575 29.0909 31.4771 29.0909 30.1101V27.8017L29.9147 27.6041C30.492 27.4654 31.4822 27.4419 33.2206 27.5258L35.7026 27.6455V25.4759C35.7026 23.438 35.6828 23.3058 35.3814 23.3058C35.205 23.3058 35.0179 23.2362 34.9654 23.1519C34.8617 22.9833 33.0713 23.0547 30.9961 23.3095C30.2713 23.3984 29.6286 23.4712 29.5687 23.4712C29.207 23.4712 29.0513 21.0661 29.1471 16.9641C29.2024 14.5885 29.1941 11.566 29.1282 10.2479C29.0623 8.92967 29.0305 7.38618 29.0573 6.81808L29.1066 5.78509H32.9906H36.8747L36.8259 4.66963C36.7812 3.65554 36.7429 3.54911 36.4048 3.50073C36.1583 3.46571 36.0329 3.33486 36.0329 3.11094C36.0329 2.83127 35.9606 2.7921 35.6067 2.88103C35.2497 2.97087 35.1953 2.94 35.2722 2.69258C35.3833 2.33505 35.2133 2.06597 34.876 2.06597C34.7217 2.06597 34.6281 1.90978 34.6281 1.65268V1.23986L32.9109 1.27073C31.9669 1.28777 31.1209 1.37486 31.0311 1.4647C30.9247 1.57159 30.733 1.5656 30.4741 1.44765C30.1755 1.31173 29.9774 1.32279 29.6572 1.49419C29.3245 1.67204 29.2079 1.67664 29.1079 1.51538C28.943 1.24861 28.3026 1.20254 25.7459 1.27349ZM128.143 1.27395C125.9 1.33892 125.526 1.53059 125.926 2.40923C126.041 2.66125 126.11 5.78003 126.128 11.4813C126.144 16.7734 126.216 20.2082 126.312 20.2672C126.401 20.322 126.421 20.6542 126.358 21.0274C126.185 22.0494 126.144 25.2893 126.304 25.2893C126.521 25.2893 126.476 27.6727 126.255 27.8934C126.111 28.0376 126.112 28.6007 126.257 30.199C126.526 33.1666 126.519 48.7868 126.248 49.0577C126.094 49.212 126.094 49.3 126.248 49.4544C126.357 49.5636 126.446 49.8631 126.446 50.1197C126.446 50.6698 127.03 50.9762 127.739 50.7984C127.983 50.7371 130.672 50.6809 133.717 50.674C138.956 50.662 139.254 50.645 139.31 50.3565C139.343 50.1842 139.218 49.9469 139.022 49.8092C138.717 49.5954 138.704 49.5369 138.918 49.3231C139.213 49.0282 139.502 48.0418 139.503 47.3271C139.504 46.6904 139.311 46.6323 136.983 46.572C136.097 46.5494 135.372 46.4743 135.372 46.4057C135.372 46.337 135.149 46.2808 134.876 46.2808C134.603 46.2808 134.38 46.3554 134.38 46.4462C134.38 46.6609 133.929 46.6618 133.857 46.4476C133.826 46.3573 133.323 46.2462 132.738 46.2006C131.7 46.12 131.285 45.8882 131.559 45.5427C131.634 45.4487 131.668 41.4121 131.635 36.5729L131.575 27.7736L132.027 27.6474C132.276 27.5778 133.702 27.5396 135.197 27.5621C138.419 27.6119 138.176 27.8008 138.179 25.2478L138.182 23.3058H137.768C137.541 23.3058 137.356 23.2385 137.356 23.1561C137.356 22.9911 135.799 23.0519 133.406 23.3104C132.551 23.4026 131.808 23.433 131.753 23.3777C131.698 23.3224 131.646 20.8851 131.637 17.9612C131.629 15.0368 131.599 11.3804 131.571 9.83457C131.542 8.28924 131.531 6.74575 131.545 6.4048L131.57 5.78509H135.362C137.448 5.78509 139.185 5.72934 139.224 5.66115C139.448 5.26261 139.12 3.47124 138.823 3.47124C138.617 3.47124 138.512 3.35329 138.512 3.11969C138.512 2.82159 138.441 2.78289 138.041 2.86306C137.619 2.94737 137.578 2.91789 137.643 2.57463C137.7 2.27653 137.627 2.16964 137.31 2.09039C136.986 2.00884 136.92 1.90701 136.982 1.58219L137.06 1.17627L135.265 1.2523C134.279 1.29376 133.448 1.39743 133.419 1.48175C133.388 1.57251 133.201 1.56007 132.964 1.45272C132.664 1.31588 132.45 1.32003 132.122 1.46931C131.835 1.60062 131.647 1.6126 131.58 1.50386C131.436 1.26981 130.48 1.20576 128.143 1.27395ZM35.2068 1.47806C35.2068 1.56376 35.3736 1.75128 35.5777 1.89411C36.0408 2.21848 36.2338 1.87799 35.7763 1.54349C35.422 1.28409 35.2068 1.25967 35.2068 1.47806ZM92.5081 1.56238C92.1607 1.68632 91.8451 1.81855 91.8074 1.85679C91.7691 1.89457 91.7014 3.03077 91.6567 4.38167C91.612 5.73257 91.5 6.91346 91.4074 7.00561C91.3153 7.09821 91.2397 7.60042 91.2397 8.12245C91.2397 8.64447 91.1586 9.12134 91.06 9.18262C90.961 9.24344 90.92 9.44478 90.9683 9.63C91.0172 9.8166 90.8951 10.2575 90.6933 10.6229C90.4274 11.1048 90.3855 11.3002 90.5371 11.3564C90.8126 11.4578 90.7965 11.8784 90.4947 12.4571C90.174 13.0722 90.1814 13.6288 90.515 13.9624C90.7605 14.208 90.7605 14.2526 90.515 14.5245C90.1487 14.9295 90.1763 15.011 90.7025 15.0718C91.2134 15.1304 91.4922 15.8675 91.0034 15.8675C90.8605 15.8675 90.744 15.9873 90.744 16.1334C90.744 16.3016 90.8347 16.3642 90.9918 16.3039C91.1711 16.2352 91.2397 16.3218 91.2397 16.6167C91.2397 16.8692 91.1453 17.0249 90.9918 17.0249C90.6859 17.0249 90.6859 17.0415 90.9909 17.6257C91.1264 17.8861 91.2379 18.2602 91.2388 18.4574C91.2393 18.6541 91.3079 18.8403 91.3913 18.8707C91.6028 18.9472 91.4088 19.8336 91.1789 19.8401C90.609 19.8557 90.4039 20.2677 90.6601 20.8814C90.9734 21.6305 90.9808 22.5967 90.6758 22.9013C90.5477 23.0298 90.4081 23.2289 90.3661 23.344C90.3044 23.5118 90.2454 23.5127 90.0703 23.3473C89.7266 23.0229 89.4216 23.1045 89.4216 23.52C89.4216 23.814 89.5889 23.9683 90.1653 24.2061C91.0328 24.5636 91.1038 24.7627 90.4131 24.9009C90.0616 24.9714 89.9174 25.0958 89.9174 25.3294C89.9174 25.5892 89.8326 25.6422 89.5124 25.581C89.2898 25.5386 89.0774 25.5856 89.041 25.6855C88.9056 26.0564 89.1327 26.2808 89.6432 26.2808C90.4514 26.2808 90.7384 26.854 90.051 27.0936C89.7686 27.1922 89.3811 27.2751 89.1903 27.2779C88.8494 27.2829 88.8489 27.2875 89.1636 27.5258C89.3401 27.6594 89.7308 27.7686 90.0316 27.7686C90.591 27.7686 90.7744 28.0344 90.332 28.204C90.1883 28.2593 90.098 28.4799 90.1146 28.7361C90.1726 29.6249 90.0768 30.2603 89.8759 30.322C89.7626 30.357 89.4672 30.4298 89.2198 30.4842C88.2569 30.6947 88.3301 32.3732 89.2977 32.2617C89.7616 32.2083 89.8649 32.4069 89.6552 32.9524C89.5797 33.1491 89.4663 33.1694 89.1364 33.0436C88.5987 32.8391 88.4651 32.9708 88.8167 33.3592C89.1977 33.7803 89.1668 34.2148 88.7563 34.2148C88.3108 34.2148 88.1698 34.6521 88.0371 36.4462C87.9763 37.2645 87.8168 38.38 87.6823 38.9255C87.5482 39.471 87.3953 40.9587 87.3432 42.2313C87.2902 43.5223 87.111 45.1667 86.9378 45.9504C86.6 47.4769 86.2402 50.5929 86.3849 50.7371C86.4342 50.7864 86.6194 50.6477 86.7963 50.4293C87.0672 50.0957 87.1764 50.0612 87.4846 50.2109C87.9638 50.4441 88.6489 50.5427 90.6753 50.6694L92.3423 50.7735L92.5349 48.4771C92.6408 47.2143 92.7275 45.9186 92.7275 45.5975C92.7275 44.9078 93.6936 44.4139 94.1507 44.8709C94.3378 45.0575 94.5285 45.0598 95.292 44.8824C96.3521 44.6359 96.7428 44.9119 96.6028 45.809C96.5622 46.0688 96.4945 46.5001 96.4521 46.7678C96.3927 47.1456 96.448 47.2774 96.7 47.3571C97.0529 47.469 97.1593 48.192 96.8387 48.2988C96.7014 48.3445 96.7046 48.6684 96.8502 49.5309L97.0474 50.7007L98.273 50.9103C99.0208 51.0384 99.8054 51.0711 100.286 50.9942C100.72 50.9246 101.409 50.8214 101.818 50.7647L102.562 50.6611L102.71 49.6732C102.811 49.0033 102.797 48.4578 102.669 47.9768C102.565 47.587 102.48 46.8226 102.48 46.2785C102.48 45.7293 102.406 45.2893 102.314 45.2893C102.223 45.2893 102.149 44.9234 102.149 44.4765C102.149 44.0296 102.083 43.6389 102.002 43.6089C101.922 43.5785 101.59 40.9878 101.265 37.851C100.569 31.1292 100.577 31.243 100.744 30.8509C100.816 30.6814 100.804 30.4975 100.717 30.4376C100.503 30.293 99.8284 26.7231 99.8321 25.7574C99.8335 25.3335 99.7593 24.9613 99.6676 24.9304C99.5727 24.8991 99.4663 24.0117 99.4225 22.8921C99.3267 20.4414 99.2018 19.1909 99.0106 18.7601C98.8061 18.3003 98.6899 17.447 98.495 14.9585C98.4024 13.7767 98.2605 12.7432 98.1804 12.6617C98.1002 12.5806 98.0758 12.3069 98.1264 12.0544C98.1836 11.7688 98.1177 11.4518 97.9518 11.2154C97.803 11.003 97.6855 10.5059 97.6851 10.0871C97.6846 9.67561 97.5408 8.14549 97.3653 6.68723C97.1902 5.22898 97.0856 3.74124 97.1326 3.38139C97.2699 2.3309 96.3609 1.40757 95.3058 1.52644C94.8874 1.5739 94.5455 1.54717 94.5455 1.46746C94.5455 1.24631 93.2209 1.30805 92.5081 1.56238ZM137.521 1.47806C137.521 1.64485 138.17 2.1489 138.384 2.1489C138.645 2.1489 138.502 1.65913 138.193 1.49327C137.794 1.2804 137.521 1.27395 137.521 1.47806ZM155.649 1.56238C154.81 1.8614 154.87 1.6983 154.829 3.77856C154.809 4.79035 154.751 5.61877 154.699 5.61923C154.647 5.61969 154.512 6.4177 154.399 7.39309C154.286 8.36848 154.11 9.26647 154.008 9.38903C153.87 9.55582 153.878 9.64613 154.042 9.74749C154.217 9.8553 154.189 9.98523 153.908 10.3801C153.512 10.9353 153.453 11.344 153.753 11.4439C153.901 11.4932 153.88 11.6997 153.671 12.2484C153.32 13.1644 153.31 13.8242 153.642 14.0103C153.863 14.1338 153.852 14.1927 153.56 14.4572C153.094 14.8788 153.138 15.0414 153.719 15.0414C154.138 15.0414 154.215 15.1055 154.215 15.4547C154.215 15.7118 154.121 15.8675 153.967 15.8675C153.83 15.8675 153.719 15.9878 153.719 16.1348C153.719 16.3209 153.82 16.3758 154.05 16.3159C154.299 16.2504 154.38 16.3108 154.38 16.56C154.38 16.7526 154.241 16.9268 154.046 16.9779C153.801 17.042 153.758 17.1199 153.883 17.2714C154.571 18.1008 154.617 19.6521 153.964 20.0013C153.482 20.2594 153.479 20.2773 153.802 21.0491C154.271 22.1724 153.762 23.6827 153.043 23.298C152.591 23.0561 152.397 23.1086 152.397 23.473C152.397 23.7039 152.626 23.9172 153.143 24.1683C153.93 24.5512 154.027 24.8392 153.398 24.9313C153.189 24.9622 152.981 25.134 152.933 25.3165C152.876 25.5358 152.747 25.6206 152.55 25.569C152.386 25.5261 152.222 25.5759 152.184 25.6796C152.051 26.0431 152.263 26.2808 152.721 26.2808C153.762 26.2808 153.759 27.0443 152.718 27.2106C151.73 27.3686 152.057 27.7593 153.182 27.7663C153.575 27.7686 153.657 27.9294 153.397 28.1901C153.312 28.2763 153.219 28.7905 153.191 29.3328C153.141 30.3123 153.137 30.3192 152.566 30.4353C151.973 30.5556 151.268 31.2181 151.548 31.3909C151.634 31.4444 151.78 31.7485 151.87 32.0664C151.962 32.3843 152.043 32.5515 152.051 32.4382C152.069 32.1876 152.893 32.1576 152.893 32.4073C152.893 32.9045 152.548 33.227 152.21 33.0464C151.815 32.8349 151.613 32.9584 151.862 33.2606C151.957 33.3763 152.06 33.6513 152.092 33.872C152.131 34.1508 152.362 34.3802 152.847 34.624C153.531 34.9672 153.539 34.9806 153.217 35.2561C152.561 35.8178 152.066 35.5418 152.066 34.6148C152.066 34.3309 151.974 34.2148 151.749 34.2148C151.376 34.2148 151.076 35.3377 151.072 36.7439C151.071 37.2166 150.955 38.0123 150.813 38.5122C150.666 39.0319 150.5 40.5906 150.425 42.1488C150.343 43.8531 150.163 45.4625 149.946 46.4397C149.28 49.436 149.286 51.3854 149.957 50.374C150.146 50.0898 150.255 50.0464 150.432 50.187C150.69 50.3925 151.619 50.5261 153.832 50.6763L155.35 50.7795L155.441 50.2243C155.527 49.7018 155.868 45.6956 155.868 45.2137C155.868 44.8364 156.863 44.5797 157.187 44.8737C157.423 45.0865 157.577 45.0907 158.298 44.9036C159.536 44.5825 159.749 44.7884 159.618 46.1817C159.547 46.9443 159.576 47.2691 159.718 47.3165C159.85 47.3603 159.921 47.8257 159.928 48.6914C159.944 50.638 159.961 50.662 161.398 50.908C162.527 51.1011 164.457 50.9776 165.602 50.639C165.858 50.5629 165.724 45.4588 165.462 45.2911C165.206 45.1275 164.789 42.3488 164.296 37.5207C164.023 34.8387 163.757 32.2995 163.705 31.8775C163.647 31.4061 163.679 31.0675 163.788 30.9998C164.054 30.8357 164.004 30.4132 163.719 30.4132C163.543 30.4132 163.471 30.2331 163.469 29.7935C163.467 29.4526 163.358 28.7274 163.226 28.1819C163.095 27.6363 162.984 26.6941 162.981 26.0882C162.978 25.4202 162.902 24.9617 162.788 24.9239C162.673 24.8852 162.545 24.0448 162.455 22.7202C162.232 19.4595 162.134 18.6776 161.946 18.6776C161.842 18.6776 161.812 18.4459 161.871 18.0842C161.924 17.758 161.9 17.3673 161.817 17.2166C161.735 17.0655 161.619 15.9938 161.561 14.8346C161.502 13.6758 161.387 12.7271 161.305 12.7271C161.224 12.7271 161.157 12.3968 161.157 11.9932C161.157 11.5895 161.092 11.2191 161.012 11.1698C160.933 11.121 160.823 10.4658 160.766 9.71386C160.711 8.96238 160.588 7.82665 160.494 7.1899C160.4 6.55362 160.287 5.23174 160.242 4.25174C160.14 2.01299 159.707 1.41033 158.306 1.55593C157.861 1.602 157.52 1.56883 157.52 1.4799C157.52 1.25045 156.383 1.30068 155.649 1.56238ZM2.47926 1.65268C2.47926 1.74391 2.25626 1.81809 1.9835 1.81809H1.48774L1.48866 6.15692C1.48912 10.4792 1.69968 15.6164 1.96415 17.7852C2.04063 18.4122 2.05077 18.9628 1.98581 19.0084C1.80197 19.1374 1.63057 20.4957 1.79828 20.4957C2.05906 20.4957 2.1314 21.7172 1.88214 21.918C1.52736 22.2042 1.76188 27.7253 2.13324 27.8248C2.34104 27.8805 2.33228 27.8994 2.09132 27.9146C1.78354 27.934 1.77801 47.0148 2.08533 49.9999L2.18715 50.9919L4.50285 51.0357C6.1841 51.0679 6.88858 51.0228 7.07288 50.8707C7.27514 50.7035 7.34057 50.703 7.39586 50.868C7.4341 50.9813 7.63084 51.0744 7.8331 51.0744H8.20078L8.14733 48.2233C8.11785 46.6549 8.05196 43.4007 8.00082 40.9919C7.88333 35.4413 7.86121 32.493 7.93124 31.6531C7.96165 31.2891 7.92664 30.1635 7.85338 29.1508C7.72391 27.3622 7.73036 27.3046 8.08052 27.1175C8.5233 26.8807 8.44774 22.7395 7.99436 22.376C7.73128 22.1655 7.55528 18.6481 7.28021 8.11876C7.19175 4.72032 7.07933 1.90056 7.03141 1.85219C6.77708 1.59832 2.47926 1.40987 2.47926 1.65268ZM12.2314 11.9111C12.2314 23.6403 12.277 23.1846 11.1491 22.7133C10.3322 22.3719 10.2479 22.411 10.2479 23.1316V23.7836L11.033 23.8338C11.8752 23.8882 11.9499 24.0573 11.6559 25.2478C11.5421 25.7086 11.2398 25.7385 11.2398 25.2893C11.2398 24.7226 10.5718 25.0345 10.1999 25.7749C9.94331 26.285 9.61342 26.3928 9.49224 26.0053C9.44018 25.839 9.33006 25.5759 9.24759 25.4211C9.1536 25.2446 9.16051 25.1004 9.26602 25.0354C9.5162 24.8806 9.39134 22.6474 9.1324 22.646C8.97759 22.6451 8.92553 23.1837 8.92553 24.7935V26.942H10.7174C12.4769 26.942 12.5124 26.9498 12.7009 27.3631C12.9478 27.9049 12.9441 27.934 12.6267 27.934C12.4276 27.934 12.3862 28.0349 12.4622 28.3371C12.5175 28.5587 12.4885 28.7863 12.3972 28.8426C12.1383 29.0029 12.201 29.5401 12.5613 30.246C12.8114 30.7367 12.8534 30.991 12.7345 31.3029C12.6322 31.572 12.6364 31.7328 12.7465 31.7697C12.858 31.8065 12.8672 32.4248 12.7741 33.6099L12.6336 35.3943L13.0934 35.4865C13.5873 35.5851 13.6297 35.6574 13.403 36.0154C13.3173 36.1504 13.1132 36.208 12.9096 36.155C12.5797 36.0689 12.5622 36.126 12.5622 37.2682C12.5622 38.6675 12.7861 39.0199 13.4758 38.7057C13.8352 38.5417 13.8845 38.5587 13.8845 38.8467C13.8845 39.0264 13.7914 39.1761 13.6776 39.1789C13.5638 39.1821 13.6385 39.324 13.843 39.495C14.307 39.8815 14.3148 40.1004 13.8693 40.2169C13.6081 40.2856 13.5505 40.3906 13.6325 40.6496C13.7136 40.9044 13.6693 40.9919 13.4592 40.9919C12.9902 40.9919 12.7382 41.5185 12.7327 42.511C12.7294 43.0284 12.6714 43.4859 12.6032 43.5278C12.535 43.5702 12.5004 45.2851 12.5267 47.3396L12.5742 51.0744H15.6257H18.6776V50.4957C18.6776 50.1778 18.6219 49.9174 18.5537 49.9174C18.3961 49.9174 18.4261 40.1778 18.585 39.8069C18.6541 39.6452 18.5873 39.3544 18.4238 39.1052C18.2164 38.7882 18.1759 38.52 18.2662 38.0584C18.4321 37.212 18.3593 31.3495 18.1819 31.2393C18.1026 31.191 18.1211 30.5657 18.2229 29.8419C18.3629 28.8439 18.3602 28.5168 18.2114 28.4671C17.9718 28.3873 17.9437 26.6116 18.1819 26.6116C18.2726 26.6116 18.3473 26.2767 18.3473 25.8675C18.3473 25.428 18.2713 25.1239 18.1616 25.1239C18.0335 25.1239 18.0395 25.0474 18.1819 24.876C18.3302 24.6972 18.3381 24.5682 18.2095 24.4134C18.0109 24.1743 17.9146 20.5759 18.0953 20.134C18.1579 19.9806 18.1293 19.46 18.0317 18.9771C17.9289 18.4721 17.8276 15.2995 17.793 11.5117C17.7455 6.36794 17.6856 4.8954 17.5198 4.79265C17.3742 4.70281 17.3014 4.19783 17.2899 3.19848L17.2728 1.73562L16.6941 1.64347C16.3762 1.59233 15.9758 1.61905 15.8049 1.70198C15.5151 1.84251 13.4417 1.73746 12.6032 1.5398L12.2314 1.4518V11.9111ZM79.1738 1.66144C75.6735 1.7218 72.2709 1.78169 71.6116 1.79459L70.4132 1.81809V4.04947V6.28086H73.1403H75.8679V7.52901C75.8679 9.28859 76.1305 9.7521 77.1294 9.7521C77.7519 9.7521 77.8689 9.79863 77.7865 10.0133C77.7312 10.1571 77.686 10.3059 77.686 10.3442C77.686 10.3819 77.5745 10.4133 77.4381 10.4133C77.0009 10.4133 77.1732 10.862 77.6925 11.0772C78.702 11.4951 79.042 12.8589 78.3177 13.5827L77.9583 13.9426L77.7192 13.5827C77.5312 13.2998 77.3179 13.2233 76.7152 13.2233H75.9504L75.9218 17.9427C75.902 21.2606 75.8361 22.7317 75.7002 22.8953C75.5569 23.0681 75.5537 23.2689 75.6887 23.6772C75.8679 24.2208 75.8472 25.6676 75.6034 29.5613C75.5339 30.6699 75.5486 31.4808 75.6389 31.5448C75.7325 31.6107 75.7408 33.562 75.6606 36.5291C75.5882 39.2107 75.574 43.4131 75.6288 45.868C75.6965 48.8987 75.6712 50.48 75.55 50.7965C75.2339 51.6217 75.5887 52.3511 76.0605 51.8456C76.2853 51.6051 77.8104 51.66 78.0896 51.9189C78.2698 52.0862 80.8859 51.9226 81.4673 51.7074C81.8309 51.5733 81.8498 51.5088 81.7203 50.8638C81.6429 50.4795 81.5646 48.7891 81.5461 47.1074C81.5277 45.4256 81.46 43.7333 81.3959 43.3472C81.3158 42.8658 81.3374 42.6446 81.466 42.6446C81.7184 42.6446 81.7042 41.566 81.4461 41.1499C81.2775 40.8776 81.2826 40.7896 81.4724 40.6717C81.6659 40.551 81.6797 40.1801 81.5558 38.4864C81.3853 36.1573 81.3738 33.0607 81.5328 32.2834C81.6461 31.7277 80.8592 31.2301 80.2413 31.4674C79.8856 31.6038 79.9478 32.1926 80.3307 32.3143C80.738 32.4433 80.8108 33.3883 80.4132 33.3883C80.2768 33.3883 80.1648 33.444 80.1644 33.5122C80.1607 34.0877 79.3839 34.5825 78.9406 34.2922C78.4711 33.9845 78.4596 33.878 78.7757 32.7686C78.8586 32.4764 78.8144 32.3967 78.5683 32.3967C78.0035 32.3967 77.5271 31.9148 77.4179 31.2338C77.3607 30.8767 77.2119 30.4999 77.0866 30.3962C76.6346 30.0211 76.9336 29.2563 77.5326 29.2563C77.8519 29.2563 78.0873 30.3206 77.9178 30.9965C77.7998 31.4679 78.1527 31.4296 78.7605 30.9053C79.5064 30.2612 80.3307 30.0465 80.3307 30.4957C80.3307 30.8316 81.0923 30.8201 81.2218 30.4823C81.4729 29.8281 80.9942 29.3839 80.3979 29.7175C80.0764 29.8977 79.3419 29.606 79.3401 29.2973C79.3392 29.1572 79.6285 29.0909 80.2404 29.0909H81.142L81.2591 28.4712C81.3236 28.1302 81.3766 27.535 81.3766 27.1489C81.377 26.7623 81.4392 26.4462 81.5153 26.4462C81.718 26.4462 81.6825 25.8662 81.4484 25.3515C81.2853 24.9944 81.2853 24.8885 81.4484 24.8341C81.6922 24.7525 81.7525 7.934 81.5088 7.934C81.4296 7.934 81.3724 7.63636 81.3821 7.27284C81.3918 6.90931 81.4563 6.61167 81.5263 6.61167C81.5959 6.61167 81.653 6.49879 81.653 6.36102C81.653 6.1477 81.9967 6.11499 83.9715 6.14171C86.7728 6.17903 86.6438 6.27671 86.7433 4.04487C86.8336 2.01713 86.6636 1.467 85.9637 1.51953C85.7292 1.53704 82.6736 1.60108 79.1738 1.66144ZM174.132 1.66144C170.587 1.72133 167.184 1.78123 166.57 1.79459L165.454 1.81809V4.04947V6.28086H168.099H170.744V7.45437C170.744 9.17801 171.058 9.7521 172.002 9.7521C172.78 9.7521 173.063 10.1912 172.397 10.3653C172.021 10.4635 171.943 10.909 172.302 10.909C173.339 10.909 174.058 12.7889 173.292 13.4989L172.854 13.9039L172.616 13.5634C172.43 13.2975 172.198 13.2233 171.558 13.2233H170.739L170.833 15.4957C170.885 16.7457 170.851 18.9587 170.757 20.4132C170.664 21.8678 170.602 23.2436 170.621 23.4712C170.64 23.6984 170.629 25.0746 170.596 26.5287C170.525 29.7032 170.526 29.1784 170.548 40.909C170.559 46.091 170.523 50.6067 170.47 50.944C170.328 51.842 170.477 52.1322 170.948 51.8793C171.377 51.6489 172.946 51.6812 173.033 51.9221C173.087 52.0728 174.656 52.0088 176 51.8014C176.71 51.6918 176.897 51.2181 176.578 50.3307C176.4 49.8345 176.35 48.9476 176.376 46.777C176.396 45.1861 176.356 43.6052 176.287 43.2643C176.203 42.8455 176.222 42.6446 176.346 42.6446C176.582 42.6446 176.583 41.5674 176.346 41.1251C176.209 40.8684 176.215 40.7528 176.37 40.6569C176.53 40.5583 176.548 39.9179 176.451 37.8266C176.315 34.9073 176.32 33.1123 176.467 32.2903C176.561 31.7586 175.681 31.1947 175.21 31.4854C174.92 31.6646 175.026 32.2041 175.372 32.3143C175.83 32.4594 175.665 33.027 174.925 33.8568C174.005 34.8875 173.168 34.3848 173.629 33.0786C173.864 32.4115 173.862 32.3967 173.5 32.3967C172.936 32.3967 172.434 31.959 172.317 31.3633C172.258 31.0679 172.091 30.5925 171.945 30.3059C171.7 29.8285 171.7 29.7636 171.943 29.5208C172.344 29.1208 172.727 29.1886 172.727 29.6595C172.727 29.8815 172.789 30.1013 172.865 30.1483C172.941 30.1948 172.97 30.4598 172.929 30.7367C172.836 31.372 173.165 31.4057 173.849 30.8311C174.617 30.1847 175.207 30.0101 175.207 30.4284C175.207 30.9887 176.1 30.7957 176.167 30.2206C176.227 29.7 175.747 29.4627 175.213 29.7488C174.986 29.87 174.876 29.8728 174.876 29.7581C174.876 29.6636 174.727 29.5867 174.545 29.5867C173.688 29.5867 174.251 29.1056 175.165 29.0577L176.116 29.0084L176.166 28.2233C176.194 27.7911 176.285 27.4382 176.369 27.4382C176.458 27.4382 176.451 27.2544 176.353 26.9973C176.229 26.6711 176.24 26.5227 176.394 26.4278C176.557 26.3264 176.561 26.1472 176.411 25.5874C176.297 25.1617 176.282 24.8539 176.375 24.8207C176.601 24.7401 176.581 7.9787 176.353 7.90267C176.232 7.86259 176.229 7.7087 176.345 7.40415C176.467 7.08347 176.458 6.9388 176.314 6.87061C176.162 6.79873 176.164 6.75404 176.323 6.68032C176.436 6.62733 176.529 6.47713 176.529 6.34674C176.529 6.15046 176.932 6.11407 178.852 6.13618C181.7 6.16935 181.555 6.28777 181.626 3.86932C181.686 1.83744 181.574 1.46101 180.93 1.51953C180.737 1.5375 177.678 1.60108 174.132 1.66144ZM33.8573 2.27284C34.0245 2.4318 34.3033 2.64743 34.4775 2.75156C34.7286 2.90222 34.7516 2.98423 34.5908 3.1524C34.4263 3.3238 34.33 3.31136 34.0817 3.08698C33.6467 2.69304 33.3883 2.74373 33.3883 3.22336C33.3883 3.52192 33.2998 3.63619 33.068 3.63619C32.793 3.63619 32.7603 3.54911 32.8344 3.01649C32.9939 1.87246 33.245 1.68954 33.8573 2.27284ZM136.375 2.38066C136.635 2.59951 136.943 2.8133 137.06 2.85615C137.226 2.9165 137.229 2.98055 137.075 3.14457C136.915 3.31413 136.796 3.30215 136.461 3.08237C135.927 2.73313 135.901 2.73727 135.838 3.18189C135.784 3.55924 135.041 3.83983 135.041 3.48276C135.041 3.38554 135.116 3.30583 135.207 3.30583C135.297 3.30583 135.372 3.05795 135.372 2.75478C135.372 1.86417 135.642 1.76372 136.375 2.38066ZM64.6281 3.08606C64.6281 3.38232 64.1719 3.967 63.9411 3.967C63.8646 3.967 63.8015 3.8555 63.8015 3.71912C63.8015 3.58274 63.8761 3.47124 63.9669 3.47124C64.0577 3.47124 64.1323 3.32242 64.1323 3.14043C64.1323 2.95705 64.2424 2.81007 64.3802 2.81007C64.5166 2.81007 64.6281 2.93401 64.6281 3.08606ZM65.2892 5.29855C65.2892 5.38425 65.2095 5.45474 65.1123 5.45474C64.8059 5.45474 64.4627 4.99814 64.4682 4.59868C64.4733 4.21811 64.4769 4.21903 64.8815 4.67885C65.1059 4.93364 65.2892 5.21285 65.2892 5.29855ZM43.7015 5.22022C43.843 5.58974 43.8319 5.61969 43.5537 5.61969C43.4159 5.61969 43.3058 5.47271 43.3058 5.28933C43.3058 4.89494 43.5596 4.85071 43.7015 5.22022ZM49.9483 6.49003C50.7919 6.98441 50.909 7.2885 50.9094 8.98772C50.9094 9.5443 51.0274 10.5579 51.1721 11.2398C51.449 12.546 51.3688 19.3807 51.0725 19.7521C51.0002 19.8428 50.915 20.1027 50.8836 20.3289C50.7933 20.9795 49.2839 21.4877 47.44 21.4877H46.6609L46.5522 17.0659C46.4923 14.6341 46.3955 11.1288 46.337 9.27615L46.2306 5.90765L47.7137 5.97861C48.943 6.03712 49.3249 6.12466 49.9483 6.49003ZM77.5206 6.49234C77.5206 6.69921 77.3907 6.98533 77.2313 7.12816C77.0723 7.27099 76.8567 7.52901 76.7525 7.70225C76.466 8.1782 76.2356 7.79901 76.3222 6.9927C76.3863 6.3942 76.4563 6.29053 76.8346 6.23248C77.0755 6.19562 77.3285 6.15415 77.3967 6.14033C77.4649 6.12697 77.5206 6.285 77.5206 6.49234ZM172.53 6.56882C172.563 6.79182 172.47 6.94893 172.266 7.0139C172.093 7.06873 171.867 7.29818 171.764 7.52394C171.458 8.19478 171.217 8.01371 171.272 7.15535C171.336 6.16429 172.397 5.66991 172.53 6.56882ZM75.8992 10.8362C75.8108 11.2504 75.7772 11.7379 75.8246 11.919C75.9688 12.4696 76.694 11.672 76.694 10.9629C76.694 10.6607 76.7687 10.4133 76.8594 10.4133C76.9502 10.4133 77.0248 10.3386 77.0248 10.2479C77.0248 9.61848 76.0504 10.1276 75.8992 10.8362ZM170.905 10.5068C170.699 11.0486 170.695 12.2314 170.9 12.2314C171.187 12.2314 171.57 11.502 171.57 10.9551C171.57 10.657 171.645 10.4133 171.735 10.4133C171.827 10.4133 171.901 10.3386 171.901 10.2479C171.901 9.86821 171.065 10.0852 170.905 10.5068ZM77.4791 15.5354C78.0915 15.9086 78.1772 16.1984 77.6749 16.1984C77.1474 16.1984 76.694 15.8901 76.694 15.5312C76.694 15.1253 76.8074 15.1258 77.4791 15.5354ZM172.356 15.5354C173.223 16.0643 172.975 16.4098 171.994 16.0371C171.732 15.9376 171.57 15.7482 171.57 15.5413C171.57 15.1248 171.681 15.1239 172.356 15.5354ZM77.4902 17.3138C77.4188 17.934 76.694 18.0823 76.694 17.4769C76.694 16.9978 76.8138 16.8595 77.2285 16.8595C77.4736 16.8595 77.5312 16.9595 77.4902 17.3138ZM172.48 17.0263C172.686 17.3585 172.382 17.8511 171.972 17.8511C171.578 17.8511 171.384 17.2659 171.681 16.9697C171.848 16.8019 172.364 16.8383 172.48 17.0263ZM77.5146 18.8016C77.493 19.2609 77.0852 19.6208 76.7355 19.4895C76.236 19.3015 76.2669 19.0711 76.818 18.8698C77.3934 18.6597 77.522 18.6472 77.5146 18.8016ZM172.307 19.0494C172.145 19.5825 172.032 19.6535 171.601 19.4881C171.175 19.325 171.254 19.0596 171.794 18.8417C172.348 18.6182 172.427 18.6504 172.307 19.0494ZM77.2423 22.1659C77.3695 22.652 77.1727 24.7935 77.0009 24.7935C76.923 24.7935 76.8594 24.6908 76.8594 24.5655C76.8594 24.4406 76.7479 24.2453 76.6116 24.1324C76.3291 23.8979 76.2725 22.975 76.5401 22.975C76.7005 22.975 76.6632 22.7091 76.4061 22.0249C76.3568 21.8941 76.4793 21.8181 76.7401 21.8181C77.0193 21.8181 77.1806 21.93 77.2423 22.1659ZM172.144 21.9752C172.265 22.1714 172.055 24.7949 171.918 24.7894C171.57 24.7751 171.05 22.975 171.394 22.975C171.48 22.975 171.507 22.7147 171.456 22.3968C171.362 21.8213 171.86 21.5163 172.144 21.9752ZM13.9596 25.2377C13.7044 25.4929 13.2233 25.5266 13.2233 25.2893C13.2233 25.1985 13.3717 25.1239 13.5537 25.1239C13.7357 25.1239 13.8845 25.0497 13.8845 24.9585C13.8845 24.8677 13.6984 24.7935 13.4712 24.7935C13.1482 24.7935 13.0579 24.7088 13.0579 24.4079C13.0579 23.7725 13.2468 23.7744 13.7242 24.4143C14.0969 24.9147 14.1384 25.0589 13.9596 25.2377ZM79.9999 24.876C79.9999 25.0124 79.8884 25.1239 79.752 25.1239C79.494 25.1239 79.4239 24.9285 79.6142 24.7383C79.8045 24.548 79.9999 24.618 79.9999 24.876ZM175.003 24.9276C175.039 25.0354 174.951 25.1239 174.807 25.1239C174.663 25.1239 174.545 25.0064 174.545 24.8622C174.545 24.5705 174.901 24.6212 175.003 24.9276ZM80.0377 26.5126C80.1759 27.1843 80.0787 27.5023 79.8483 27.1295C79.775 27.0111 79.5672 26.9388 79.3871 26.9692C78.9844 27.0374 78.5126 26.6701 78.5126 26.2882C78.5126 25.4206 79.8529 25.6178 80.0377 26.5126ZM174.773 25.9919C174.803 26.1053 174.905 26.4402 175.002 26.7356C175.102 27.0415 175.113 27.2728 175.027 27.2728C174.944 27.2728 174.876 27.1889 174.876 27.0867C174.876 26.9701 174.699 26.9365 174.399 26.9964C173.726 27.1309 173.068 26.326 173.499 25.8952C173.694 25.7003 174.719 25.7777 174.773 25.9919ZM89.2862 29.1195C89.364 29.6484 89.752 29.7051 89.752 29.1872C89.752 28.9094 89.6612 28.7605 89.4926 28.7605C89.3203 28.7605 89.2511 28.8808 89.2862 29.1195ZM152.344 28.9882C152.257 29.2171 152.514 29.5867 152.761 29.5867C152.833 29.5867 152.893 29.401 152.893 29.1734C152.893 28.7315 152.495 28.5965 152.344 28.9882ZM79.1738 29.935C79.1738 30.1847 79.0996 30.2547 78.912 30.1829C78.7683 30.1276 78.6195 30.0824 78.5817 30.0824C78.5435 30.0824 78.5126 29.9709 78.5126 29.8345C78.5126 29.6968 78.6591 29.5867 78.8429 29.5867C79.0692 29.5867 79.1738 29.6968 79.1738 29.935ZM94.7497 29.9585C95.1367 30.3303 96.3636 31.995 96.3636 32.1475C96.3636 32.1922 96.576 32.4336 96.8354 32.6847C97.2612 33.0957 97.3165 33.2781 97.4012 34.5443C97.4796 35.721 97.5505 35.9845 97.8385 36.1758C98.3706 36.5296 98.2771 37.1981 97.6035 37.851C97.2851 38.1597 97.0248 38.5753 97.0248 38.7753C97.0248 39.7322 95.4002 40.5206 93.8724 40.3045L93.4711 40.2478V36.812C93.4711 34.1043 93.5185 33.3468 93.6945 33.2381C93.8494 33.1427 93.9452 32.5612 94.0074 31.3435C94.1032 29.4692 94.1498 29.3816 94.7497 29.9585ZM158.468 30.7565C158.943 31.3402 159.334 31.8839 159.336 31.9641C159.337 32.0443 159.599 32.3553 159.917 32.6552C160.491 33.1961 160.496 33.2136 160.496 34.6111C160.496 35.8523 160.536 36.0426 160.826 36.1983C161.35 36.4785 161.266 37.3539 160.661 37.934C160.389 38.1952 160.165 38.4951 160.165 38.6006C160.165 39.5959 159.401 40.1363 157.802 40.2713L156.58 40.375L156.482 39.4281C156.311 37.7708 156.546 33.2233 156.802 33.2233C156.958 33.2233 157.025 32.9828 157.025 32.4212C157.025 29.4461 157.219 29.2222 158.468 30.7565ZM174.05 29.923C174.05 30.2082 173.999 30.2326 173.719 30.0824C173.537 29.9852 173.389 29.8341 173.389 29.7461C173.389 29.6585 173.537 29.5867 173.719 29.5867C173.941 29.5867 174.05 29.6968 174.05 29.923ZM13.7071 30.4441C13.9522 30.5971 14.166 30.5929 14.6733 30.4257C15.5731 30.1285 16.0786 30.298 15.8418 30.8173C15.7247 31.0744 15.7201 31.3006 15.8284 31.4941C15.9952 31.7918 15.1101 32.3843 14.1342 32.6294C13.9274 32.681 13.7196 32.8731 13.6717 33.0561C13.5648 33.4643 13.2224 33.4974 13.2247 33.0994C13.2261 32.9399 13.3376 32.4442 13.4735 31.9968C13.6924 31.2748 13.6919 31.1532 13.4717 30.9095C13.0091 30.3989 13.1598 30.1022 13.7071 30.4441ZM14.2149 34.6281C14.2149 35.0373 14.2204 35.4257 14.2273 35.4916C14.2342 35.5574 14.1702 35.6348 14.0849 35.6629C13.8536 35.7404 13.5569 34.0798 13.785 33.9854C14.1642 33.8287 14.2149 33.9047 14.2149 34.6281ZM89.8275 34.6581C90.3767 34.9198 90.3947 34.9529 90.1381 35.2363C89.7515 35.6639 89.153 35.6252 89.03 35.1653C88.7969 34.2968 88.9139 34.2222 89.8275 34.6581ZM90.2477 36.6065C90.2477 36.889 90.3191 36.9871 90.4804 36.9254C90.8702 36.7756 92.07 37.6543 92.3321 38.2818C92.6201 38.9711 92.5662 39.0803 91.7244 39.5097C91.007 39.876 91.0015 39.8852 91.2457 40.3413C91.4222 40.6717 91.1881 40.8141 90.9918 40.4957C90.9356 40.4049 90.6753 40.3307 90.4131 40.3307C89.7939 40.3307 89.74 40.2197 89.6709 38.8034C89.6372 38.1063 89.535 37.5861 89.4244 37.5492C89.2991 37.5073 89.3267 37.3866 89.5073 37.1866C89.722 36.9493 89.74 36.8153 89.5939 36.5425C89.4299 36.2356 89.4557 36.1983 89.8289 36.1983C90.1643 36.1983 90.2477 36.2799 90.2477 36.6065ZM153.389 36.596C153.389 36.9125 153.456 36.9761 153.719 36.9074C153.901 36.86 154.05 36.895 154.05 36.9853C154.05 37.076 154.276 37.2438 154.553 37.3585C155.681 37.8257 155.836 39.0162 154.835 39.5212C153.943 39.9709 153.964 39.9456 154.215 40.2478C154.332 40.3888 154.369 40.5579 154.299 40.6238C154.228 40.6897 154.136 40.651 154.096 40.5372C154.055 40.4234 153.768 40.3307 153.457 40.3307C152.922 40.3307 152.893 40.3003 152.893 39.752C152.893 39.4337 152.823 39.1734 152.738 39.1734C152.652 39.1734 152.623 38.9236 152.673 38.6177C152.723 38.3118 152.672 37.892 152.561 37.6842C152.391 37.3672 152.403 37.282 152.636 37.1521C152.89 37.0097 152.891 36.9645 152.651 36.5978C152.394 36.2057 152.398 36.1983 152.889 36.1983C153.307 36.1983 153.389 36.2638 153.389 36.596ZM79.0083 38.4988C79.0083 38.5822 79.0498 38.7587 79.1005 38.8909C79.153 39.0273 79.0715 39.1775 78.9116 39.2388C78.5352 39.383 78.4757 39.2941 78.6047 38.7799C78.7066 38.3744 79.0083 38.1643 79.0083 38.4988ZM174.02 38.8154C174.051 39.0305 173.966 39.2162 173.806 39.2775C173.449 39.4143 173.402 39.3388 173.506 38.7946C173.608 38.2661 173.941 38.2795 174.02 38.8154ZM114.816 38.7605C114.751 38.9292 114.825 39.0084 115.046 39.0084C115.226 39.0084 115.372 38.8969 115.372 38.7605C115.372 38.6241 115.268 38.5122 115.142 38.5122C115.015 38.5122 114.868 38.6241 114.816 38.7605ZM12.6447 39.8345C12.7009 39.9257 12.8497 39.9999 12.975 39.9999C13.1008 39.9999 13.2496 39.9257 13.3058 39.8345C13.3639 39.7405 13.2215 39.6696 12.975 39.6696C12.729 39.6696 12.5866 39.7405 12.6447 39.8345ZM65.1238 41.4877C65.1238 41.6692 65.0497 41.818 64.9589 41.818C64.8677 41.818 64.7935 41.7872 64.7935 41.7489C64.7935 41.7111 64.7483 41.5623 64.693 41.4186C64.6272 41.2467 64.6838 41.1569 64.8584 41.1569C65.0137 41.1569 65.1238 41.2942 65.1238 41.4877ZM14.4512 41.7996C14.6005 42.041 14.1416 42.3073 13.7518 42.205C13.2058 42.0627 13.2971 41.6531 13.8744 41.6531C14.1421 41.6531 14.4015 41.719 14.4512 41.7996ZM36.1463 47.534C36.2919 47.5718 36.2983 47.746 36.1721 48.2136C35.9652 48.9803 35.7026 49.3046 35.7026 48.7932C35.7026 48.5804 35.5998 48.4297 35.4547 48.4297C35.2893 48.4297 35.2068 48.5951 35.2068 48.9255C35.2068 49.7617 34.7604 49.5249 34.4438 48.5209C34.0066 47.1341 34.1923 47.0267 36.1463 47.534ZM138.115 47.4382C138.648 47.4382 138.728 47.7049 138.433 48.5122C138.217 49.1047 138.181 49.1346 138.085 48.8015C137.923 48.238 137.521 48.3362 137.521 48.9393C137.521 49.7129 137.154 49.4544 136.813 48.4412C136.464 47.3999 136.62 47.0244 137.296 47.2815C137.522 47.3677 137.891 47.4382 138.115 47.4382ZM33.6177 48.1164C33.585 49.3203 32.8925 49.3733 32.8925 48.1721C32.8925 47.5211 32.9344 47.4382 33.2643 47.4377C33.5928 47.4377 33.6343 47.5174 33.6177 48.1164ZM135.992 48.1404C135.971 48.7854 135.815 49.0816 135.496 49.0886C135.428 49.0899 135.372 48.719 135.372 48.2643C135.372 47.5557 135.418 47.4382 135.694 47.4382C135.966 47.4382 136.012 47.5465 135.992 48.1404ZM108.595 52.7271C108.595 52.8183 108.702 52.8925 108.833 52.8925C108.964 52.8925 109.117 52.8183 109.174 52.7271C109.23 52.6363 109.123 52.5621 108.936 52.5621C108.748 52.5621 108.595 52.6363 108.595 52.7271ZM104.463 57.6031C104.181 57.7644 103.512 57.8413 102.355 57.8455C100.992 57.8501 100.661 57.898 100.661 58.0897C100.661 58.4758 100.044 58.8001 98.5715 59.1894C97.4694 59.4802 97.1902 59.6161 97.1902 59.8598C97.1902 60.1197 97.0552 60.1653 96.2812 60.1653C95.4339 60.1653 95.3721 60.192 95.3721 60.5583C95.3721 61.079 95.0915 61.2863 94.3014 61.3513C93.7204 61.3992 93.6365 61.4614 93.5448 61.9152C93.3877 62.6902 93.2578 62.81 92.5745 62.81C92.0276 62.81 91.8861 62.8957 91.4881 63.4702C91.2365 63.8333 90.7057 64.4299 90.3085 64.7958C89.8358 65.2316 89.5866 65.6002 89.5866 65.8642C89.5866 66.167 89.4018 66.3752 88.8429 66.7028C88.1629 67.1013 88.0993 67.194 88.0993 67.7842C88.0993 68.3039 88.0389 68.4297 87.791 68.4297C87.4648 68.4297 87.2727 69.2341 87.2727 70.5998C87.2727 70.9499 87.0875 71.7019 86.8608 72.2709C84.8418 77.3455 85.0473 79.3544 89.012 93.2951C90.0478 96.9373 91.1609 101.033 91.4853 102.397C93.1532 109.407 93.7991 111.807 94.0839 112.051C94.299 112.236 94.3801 112.543 94.3801 113.177C94.3801 113.924 94.4253 114.05 94.6944 114.05C94.9588 114.05 95.0256 114.215 95.1146 115.083C95.3758 117.643 95.5431 118.325 95.9223 118.379C96.2305 118.423 96.2881 118.552 96.3309 119.298C96.371 119.996 96.4374 120.165 96.671 120.165C96.893 120.165 97.0322 120.447 97.2644 121.364C97.4312 122.023 98.6982 126.541 100.08 131.405C101.462 136.269 102.722 140.741 102.879 141.342C103.094 142.163 103.266 142.491 103.566 142.651C103.883 142.821 103.967 142.998 103.967 143.499C103.967 143.952 104.038 144.132 104.215 144.132C104.419 144.132 104.463 144.426 104.463 145.785C104.463 147.052 104.514 147.438 104.683 147.438C104.908 147.438 105.86 150.673 107.604 157.356C109.711 165.431 110.464 168.018 110.769 168.232C110.948 168.359 111.074 168.65 111.074 168.934C111.074 169.239 111.196 169.495 111.405 169.625C111.678 169.796 111.735 170.011 111.735 170.866C111.735 171.676 111.789 171.901 111.983 171.901C112.184 171.901 112.231 172.167 112.231 173.306C112.231 174.583 112.26 174.711 112.55 174.711C113.384 174.711 113.447 179.064 112.647 181.363C112.005 183.212 110.509 184.38 108.145 184.881C106.313 185.269 106.257 185.254 105.006 184.004C102.825 181.825 102.556 181.17 102.306 177.438C102.115 174.578 101.951 173.635 101.485 172.722L101.15 172.066H99.9261C98.8268 172.066 98.6697 172.107 98.3863 172.467C98.2126 172.688 97.8417 173.061 97.562 173.296L97.0534 173.724L96.7774 172.894C96.313 171.496 94.7962 171.461 95.1966 172.858C95.3293 173.321 95.4394 174.753 95.3924 175.413C95.3786 175.606 95.2344 175.702 94.9588 175.702C94.7312 175.702 94.5455 175.743 94.5455 175.793C94.5455 176.171 95.1123 178.017 95.2288 178.017C95.344 178.017 97.7754 179.118 97.9822 179.264C98.2813 179.474 97.3063 180.586 96.3724 181.098C95.7767 181.425 94.564 182.107 93.6775 182.613L92.0663 183.535V184.246C92.0663 185.07 92.0893 185.061 90.9485 184.628C89.6962 184.152 89.1032 184.207 88.5725 184.848L88.1366 185.374L88.5379 186.765C89.382 189.689 90.3869 191.57 91.1047 191.57C91.6852 191.57 92.3966 192.203 92.3966 192.719C92.3966 193.115 92.6136 193.341 93.8429 194.225C94.6386 194.797 95.7462 195.624 96.3042 196.063C97.1838 196.753 97.4215 196.86 98.0813 196.86C98.7328 196.86 98.8429 196.907 98.8429 197.19C98.8429 197.432 98.953 197.521 99.2562 197.521C99.5833 197.521 99.6695 197.604 99.6695 197.921C99.6695 198.294 99.745 198.328 100.785 198.43C102.132 198.561 104.509 198.91 106.529 199.271C108.238 199.577 111.269 199.541 111.599 199.211C111.722 199.088 112.276 199.008 113.008 199.008C114.105 199.008 114.215 198.978 114.215 198.678C114.215 198.384 114.325 198.347 115.207 198.347C116.154 198.347 116.198 198.329 116.198 197.934C116.198 197.603 116.281 197.521 116.611 197.521C116.915 197.521 117.025 197.432 117.025 197.19C117.025 196.916 117.135 196.86 117.673 196.86C118.232 196.86 118.368 196.782 118.672 196.29C118.97 195.809 119.131 195.713 119.713 195.67C120.333 195.625 120.418 195.565 120.556 195.083C120.689 194.617 120.781 194.545 121.252 194.545C121.806 194.545 122.48 193.944 122.48 193.449C122.48 193.286 122.726 193.223 123.36 193.223C124.488 193.223 124.959 192.795 124.959 191.768C124.959 191.143 125.021 191.039 125.62 190.661C126.106 190.354 126.281 190.133 126.281 189.827C126.281 189.598 126.385 189.371 126.513 189.322C126.64 189.273 126.79 188.988 126.846 188.689C126.903 188.389 127.096 188.011 127.276 187.848C127.515 187.632 127.603 187.339 127.603 186.768C127.603 186.046 127.65 185.956 128.182 185.641L128.76 185.301L128.755 181.865C128.745 174.096 128.176 171.04 125.487 164.293C125.215 163.61 124.94 162.606 124.878 162.062C124.737 160.837 124.475 159.781 124.283 159.662C124.104 159.55 123.521 156.761 123.371 155.297C123.269 154.301 123.229 154.215 122.87 154.215C122.507 154.215 122.48 154.151 122.48 153.306C122.48 152.531 122.434 152.397 122.173 152.397C121.851 152.397 121.653 151.108 121.653 149.014C121.653 148.258 121.597 148.12 121.157 147.795C120.725 147.475 120.661 147.326 120.661 146.626C120.661 145.979 120.601 145.808 120.35 145.742C120.025 145.657 119.91 145.201 119.729 143.265C119.655 142.47 119.588 142.314 119.324 142.314C119.15 142.314 119.007 142.258 119.005 142.19C119.004 142.122 118.897 141.322 118.768 140.413C118.64 139.504 118.482 138.113 118.419 137.323C118.34 136.346 118.231 135.859 118.077 135.8C117.953 135.752 117.851 135.562 117.851 135.377C117.851 135.129 117.743 135.041 117.438 135.041H117.025V133.306C117.025 132.259 116.959 131.57 116.859 131.57C116.769 131.57 116.694 131.377 116.694 131.141C116.694 130.883 116.507 130.536 116.227 130.273C115.884 129.951 115.706 129.561 115.558 128.802C115.396 127.976 115.293 127.768 115.047 127.768C114.809 127.768 114.696 127.572 114.553 126.904C114.244 125.466 113.719 122.099 113.719 121.56C113.719 121.213 113.563 120.904 113.223 120.578C112.95 120.317 112.727 119.931 112.727 119.72C112.727 119.508 112.579 119.208 112.397 119.052C112.152 118.843 112.066 118.565 112.066 117.98C112.066 117.545 111.992 117.19 111.901 117.19C111.802 117.19 111.735 116.537 111.735 115.563C111.735 114.146 111.693 113.897 111.405 113.636C111.175 113.429 111.074 113.127 111.074 112.65C111.074 112.192 110.965 111.845 110.744 111.608C110.562 111.413 110.413 111.033 110.413 110.763C110.413 110.436 110.275 110.163 110 109.947C109.624 109.651 109.587 109.509 109.587 108.365C109.587 107.392 109.534 107.107 109.353 107.107C109.19 107.107 109.093 106.822 109.029 106.157C108.811 103.877 108.746 103.636 108.247 103.267C107.809 102.943 107.768 102.826 107.768 101.895C107.768 101.088 107.7 100.816 107.438 100.579C107.18 100.345 107.107 100.069 107.107 99.323C107.107 98.7968 107.033 98.3204 106.942 98.2647C106.851 98.2085 106.777 97.5579 106.777 96.8189C106.777 95.6937 106.722 95.4177 106.439 95.1159C106.213 94.875 105.786 93.5678 105.144 91.1476C104.617 89.1627 104.1 87.51 103.994 87.4745C103.88 87.4367 103.801 87.0548 103.801 86.5378C103.801 85.9485 103.643 85.2804 103.313 84.4801C101.71 80.5915 101.418 76.096 102.686 74.8008C102.981 74.499 103.383 74.0392 103.579 73.7789L103.935 73.3057L107.546 73.2643L111.157 73.2223L112.066 74.2871C113.125 75.527 113.512 76.4323 113.658 78.0094C113.744 78.9277 113.824 79.1622 114.072 79.2272C114.585 79.3613 114.539 82.9753 114.024 82.9753C113.672 82.9753 113.67 83.0021 113.775 85.0828C113.976 89.0291 114.251 90.6656 114.684 90.4938C116.92 89.6073 120.826 89.4631 120.826 90.2662C120.826 90.7545 123.226 90.737 123.354 90.2477C123.436 89.9307 123.579 89.9174 126.844 89.9174C129.129 89.9174 130.248 89.8598 130.248 89.7423C130.248 88.9166 129.775 86.9253 129.293 85.7163C128.72 84.2839 128.709 84.2166 128.91 83.3195C129.318 81.4954 129.329 81.0494 128.969 80.955C128.703 80.8854 128.626 80.6776 128.544 79.8151C128.489 79.235 128.394 78.3324 128.331 77.8099C128.234 76.993 128.256 76.8594 128.489 76.8594C128.717 76.8594 128.76 76.6586 128.76 75.62C128.76 74.6281 128.711 74.3802 128.513 74.3802C128.308 74.3802 128.265 74.077 128.265 72.6445C128.265 71.0273 128.242 70.9089 127.938 70.9089C127.589 70.9089 127.423 70.4662 126.699 67.6031C126.36 66.2609 126.323 66.1964 125.858 66.1545C124.32 66.0168 124.298 66.0025 124.292 65.1579C124.286 64.3954 124.262 64.3599 123.055 63.3463C122.279 62.6943 121.783 62.1447 121.713 61.8585C121.564 61.2481 121.394 61.1624 120.326 61.1596C119.24 61.1564 118.776 60.8813 118.512 60.0819C118.39 59.7133 118.191 59.4742 117.962 59.4212C117.765 59.3756 116.845 59.1945 115.919 59.019C114.081 58.6702 113.554 58.4642 113.554 58.0933C113.554 57.892 113.152 57.8514 111.157 57.8514C109.137 57.8514 108.76 57.8123 108.76 57.6031C108.76 57.2534 105.075 57.2534 104.463 57.6031ZM65.2892 58.2468C65.2892 58.4836 65.2128 58.6776 65.1192 58.6776C64.6741 58.6776 60.0474 59.1941 59.7935 59.2724C59.541 59.3498 59.5041 59.5912 59.5041 61.1683V62.9754H59.0909C58.8338 62.9754 58.6776 63.0689 58.6776 63.2233C58.6776 63.3776 58.8338 63.4711 59.0909 63.4711H59.5041V65.1238V66.777H59.0909C58.7877 66.777 58.6776 66.865 58.6776 67.1073C58.6776 67.3497 58.7877 67.4381 59.0909 67.4381H59.5041V69.5866C59.5041 71.6254 59.5212 71.7355 59.8345 71.7355C60.0165 71.7355 60.1653 71.8101 60.1653 71.9009C60.1653 71.9917 60.0165 72.0663 59.8345 72.0663C59.6023 72.0663 59.5041 72.1764 59.5037 72.4381C59.5005 74.0913 59.0369 78.6066 58.7573 79.7105C58.6541 80.1178 58.6859 80.1653 59.0618 80.1653C59.6663 80.1653 59.7129 80.4758 59.5894 83.6886C59.4664 86.8825 59.7142 87.85 60.7237 88.12C61.1554 88.2357 61.1568 88.2324 61.1568 87.2584C61.1568 86.3913 61.1941 86.2812 61.4876 86.2812C61.9088 86.2812 61.9092 85.9453 61.489 85.4113L61.1596 84.9925L61.6636 83.2965C62.3064 81.1328 62.5768 80.5961 62.945 80.7527C63.8296 81.1292 64.4327 81.3088 64.8345 81.3148L65.2892 81.3222V83.5559V85.7896L64.7013 85.544C64.3779 85.4085 63.89 85.1395 63.6172 84.945C63.0072 84.5106 62.9155 84.5921 62.9026 85.5822L62.8924 86.3637L64.0908 86.5913C65.4652 86.8521 65.4293 86.7742 65.0966 88.7895C64.9497 89.6787 64.9497 90.0303 65.0966 90.2652C65.5989 91.0697 65.192 91.6599 63.9254 91.9635C62.9781 92.1907 63.4605 93.5149 64.6166 93.8613L65.2892 94.0627V95.7089V97.3552H64.3982C63.5776 97.3552 63.4983 97.3215 63.3997 96.9281C63.1214 95.82 60.1653 94.9833 60.1653 96.0126C60.1653 96.6535 60.3791 97.3552 60.5744 97.3552C60.6859 97.3552 61.1214 97.5381 61.5415 97.762C61.9622 97.9855 62.8809 98.2766 63.5836 98.4093C65.251 98.7245 65.2892 98.7848 65.2892 101.106V102.975H64.876C64.5041 102.975 64.4627 102.909 64.4627 102.314V101.653L63.0993 101.647C61.3245 101.641 61.2462 101.571 60.926 99.7156C60.5943 97.7929 60.398 97.3552 59.8695 97.3552H59.4613L59.5779 98.719C59.6419 99.469 59.799 100.826 59.9266 101.735C60.0547 102.645 60.1607 103.481 60.1621 103.595C60.1644 103.743 60.5417 103.801 61.4876 103.801H62.81V104.391C62.81 104.716 63.0072 105.796 63.2486 106.79C63.7457 108.843 63.7637 108.781 62.6483 108.888L61.818 108.968V107.707C61.818 106.471 61.4342 105.821 61.2923 106.818C61.2467 107.142 61.1278 107.197 60.3717 107.24C59.3572 107.298 59.3894 107.165 59.834 109.457C60.0156 110.392 60.1644 111.176 60.1648 111.198C60.1648 111.221 60.3883 111.24 60.6611 111.24C61.3554 111.24 61.3006 111.482 60.2469 113.074C59.4562 114.27 58.6776 115.898 58.6776 116.358C58.6776 116.516 59.5286 116.628 61.9009 116.782C64.4691 116.948 64.4627 116.946 64.4627 117.776C64.4627 118.346 64.3959 118.512 64.1314 118.595C63.9489 118.653 63.5711 118.893 63.2919 119.128L62.7837 119.555L61.6139 118.993C60.679 118.543 60.4275 118.478 60.3625 118.668C60.3183 118.8 60.1017 119.087 59.8815 119.307L59.4811 119.708L59.823 121.264C60.2358 123.141 60.2349 122.975 59.8345 122.975C59.6511 122.975 59.5041 123.085 59.5041 123.223C59.5041 123.361 59.6511 123.471 59.8345 123.471C60.0165 123.471 60.1653 123.545 60.1653 123.636C60.1653 123.727 60.0165 123.95 59.8345 124.132C59.4032 124.563 59.389 125.289 59.8124 125.289C60.204 125.289 60.3639 126.289 60.2192 127.838L60.1174 128.926L60.5961 128.936C61.061 128.946 61.0638 128.951 60.6869 129.102C60.4735 129.187 60.2625 129.399 60.2169 129.572C60.1718 129.745 59.9824 129.927 59.7967 129.975C59.4138 130.075 59.4313 131.046 59.928 137.269C60.2215 140.944 60.2303 140.661 59.8202 140.661C59.4332 140.661 59.4751 141.391 59.9368 142.7C60.1473 143.296 60.1404 143.343 59.8331 143.424C59.3986 143.537 59.3549 145.601 59.7691 146.431C60.1796 147.254 60.2736 148.265 59.9391 148.265C59.6069 148.265 59.6046 148.37 59.9174 149.256C60.2252 150.129 60.2298 150.083 59.8345 150.083C59.541 150.083 59.5041 150.193 59.5041 151.074C59.5041 151.956 59.541 152.066 59.8345 152.066C60.0921 152.066 60.1653 152.176 60.1653 152.562C60.1653 152.933 60.0888 153.058 59.8608 153.058C59.5709 153.058 59.5498 153.475 59.4069 161.859C59.1867 174.814 59.2226 177.073 59.6806 179.091C60.2386 181.552 60.3459 186.116 59.846 186.116C59.5838 186.116 59.5037 186.222 59.5028 186.57C59.4949 188.716 59.0001 194.555 58.7319 195.661C58.6559 195.975 58.7094 196.033 59.0729 196.033C59.482 196.033 59.5041 196.077 59.5041 196.885V197.736L61.5291 197.627C65.7163 197.402 74.1328 197.32 75.4519 197.492C76.178 197.586 76.794 197.641 76.8212 197.614C76.8484 197.587 76.7935 194.598 76.6996 190.972C76.2586 173.976 76.1499 164.28 76.0398 131.983L75.9209 97.2727L75.5505 95.62C75.1957 94.0378 75.1906 93.9139 75.4348 92.7274C75.5753 92.0455 75.7329 91.0411 75.7859 90.4961C75.8384 89.9505 75.9191 89.2622 75.9647 88.9669C76.0402 88.4799 76.0089 88.4296 75.6274 88.4296H75.2067V84.4626V80.4961H75.6329C76.0554 80.4961 76.0587 80.4864 75.9684 79.4626C75.9181 78.8945 75.8343 77.5745 75.7818 76.5291C75.7297 75.4837 75.5772 73.1776 75.4436 71.4052C75.3095 69.6322 75.1828 66.3969 75.1621 64.2148C75.1243 60.257 75.1229 60.2459 74.6695 59.3221C74.4193 58.8135 74.2148 58.2739 74.2148 58.1242C74.2148 57.9067 74.0461 57.8514 73.3887 57.8514C72.61 57.8514 72.5621 57.8759 72.5621 58.2786V58.7057L71.2812 58.5974C69.0305 58.4062 65.8467 58.0298 65.5634 57.921C65.3514 57.8395 65.2892 57.9132 65.2892 58.2468ZM150.519 57.9735C150.026 58.0118 149.477 58.1942 149.098 58.4449C148.655 58.7379 148.111 58.895 147.174 59.0001C145.978 59.1342 145.106 59.124 141.718 58.937L140.543 58.872L140.252 59.4774C139.623 60.7855 139.471 61.4936 139.323 63.8015C139.152 66.477 139.232 67.4381 139.622 67.4381C139.903 67.4381 139.845 69.3189 139.475 72.2294C139.378 73.0012 139.346 74.2696 139.404 75.0487C139.77 79.8971 139.845 83.2269 139.843 94.628C139.841 103.353 139.9 107.804 140.031 108.781C140.177 109.869 140.174 111.817 140.019 117.006C139.815 123.777 139.816 123.808 140.155 124.24C140.611 124.819 140.617 125.62 140.165 125.62C139.855 125.62 139.835 125.73 139.835 127.438C139.835 129.146 139.855 129.256 140.165 129.256C140.569 129.256 140.586 129.605 140.251 130.992C139.928 132.332 139.927 133.223 140.248 133.223C140.455 133.223 140.496 133.553 140.496 135.207C140.496 137.08 140.478 137.19 140.165 137.19C139.639 137.19 139.661 139.985 140.188 140.123C140.581 140.226 140.575 144.828 140.18 146.107C140.084 146.421 140.068 146.718 140.144 146.769C140.484 146.989 140.496 148.361 140.167 149.504C139.761 150.916 139.757 151.074 140.124 151.075C140.395 151.075 140.41 151.449 140.368 156.984C140.344 160.233 140.327 163.265 140.33 163.719C140.333 164.174 140.367 170.124 140.403 176.942L140.47 189.339L139.835 190.744C139.233 192.077 138.846 193.222 138.844 193.678C138.843 193.813 139.104 193.884 139.6 193.884H140.357L140.242 194.421C140.179 194.717 140.033 195.239 139.917 195.581C139.72 196.164 139.731 196.223 140.101 196.514C140.366 196.722 140.496 196.993 140.496 197.338V197.851H141.818C143.03 197.851 143.141 197.824 143.141 197.521C143.141 197.198 143.251 197.19 147.934 197.19C151.019 197.19 152.727 197.131 152.727 197.025C152.727 196.934 152.876 196.86 153.058 196.86C153.357 196.86 153.568 197.035 154.278 197.873C154.627 198.285 155.372 198.088 155.372 197.584C155.372 197.274 155.46 197.19 155.785 197.19C156.18 197.19 156.198 197.145 156.198 196.206C156.198 195.437 156.286 195.092 156.598 194.633C157.201 193.744 157.291 192.875 156.871 192.007C155.874 189.949 155.232 186.281 155.868 186.281C156.3 186.281 156.285 186.052 155.766 184.689L155.334 183.554L155.477 180.248C155.555 178.43 155.602 175.752 155.58 174.298C155.558 172.843 155.516 166.93 155.486 161.157L155.433 150.661H157.262C158.268 150.661 159.965 150.596 161.033 150.517C162.782 150.388 162.975 150.401 162.975 150.645C162.975 150.794 163.236 151.582 163.554 152.397C163.872 153.211 164.132 154.028 164.132 154.211C164.132 154.522 164.237 154.545 165.62 154.545H167.108V153.802C167.108 153.062 167.104 153.058 166.529 153.058C166.211 153.058 165.95 153.008 165.95 152.947C165.95 152.649 167.481 151.405 167.849 151.405C168.306 151.405 168.512 151.104 168.684 150.188C168.794 149.606 168.841 149.561 169.278 149.625C169.539 149.663 169.752 149.633 169.752 149.558C169.752 149.483 169.578 149.422 169.364 149.422C168.58 149.422 168.24 148.409 167.851 144.917C167.762 144.126 167.691 143.967 167.426 143.967C167.134 143.967 167.108 143.837 167.108 142.397C167.108 141.531 167.038 140.826 166.953 140.826C166.868 140.826 166.775 140.585 166.746 140.289C166.702 139.834 166.621 139.744 166.216 139.698L165.737 139.643L165.844 138.013C165.911 136.986 165.889 136.346 165.785 136.281C165.694 136.225 165.62 135.923 165.62 135.61C165.62 135.114 165.567 135.041 165.207 135.041C164.812 135.041 164.793 134.997 164.793 134.05C164.793 133.102 164.775 133.058 164.38 133.058C163.985 133.058 163.967 133.014 163.967 132.066C163.967 131.295 163.912 131.074 163.719 131.074C163.532 131.074 163.471 130.872 163.471 130.248C163.471 129.689 163.403 129.422 163.26 129.422C163.018 129.422 162.226 127.392 161.944 126.046C161.77 125.221 161.79 125.011 162.144 123.929C162.36 123.268 162.558 122.482 162.584 122.183C162.61 121.884 162.784 121.426 162.969 121.166C163.154 120.906 163.306 120.589 163.306 120.461C163.306 120.334 163.529 119.879 163.8 119.45C164.072 119.021 164.287 118.616 164.277 118.55C164.162 117.796 164.322 117.356 164.711 117.356C165.206 117.356 165.201 117.397 164.807 116.479L164.491 115.74L165.04 115.208C165.388 114.871 165.659 114.394 165.779 113.908C166.275 111.895 166.272 111.901 166.701 111.901C166.952 111.901 167.108 111.806 167.108 111.653C167.108 111.499 166.951 111.405 166.694 111.405C166.183 111.405 166.181 111.454 166.768 110.207C167.34 108.993 169.091 102.731 169.091 101.901C169.091 101.43 169.163 101.31 169.498 101.226C169.98 101.105 169.962 101.162 170.423 98.4296C170.753 96.4692 170.826 96.2475 171.26 95.8969C171.605 95.6182 171.735 95.368 171.735 94.9819C171.735 94.2917 173.22 89.8985 173.794 88.8881C174.039 88.4582 174.196 88.0366 174.143 87.9509C173.808 87.4086 174.744 83.5545 175.378 82.8671C176.258 81.9119 176.343 81.4742 175.804 80.6601C175.272 79.8557 175.26 79.9847 175.95 79.0798C176.575 78.2619 176.648 77.81 176.349 76.6235C176.168 75.9025 176.452 74.9953 177.105 74.2148C177.392 73.872 181.157 62.0756 181.157 61.5194C181.157 61.0112 179.122 59.5106 177.83 59.065C176.485 58.6015 174.05 58.5638 174.05 59.0065C174.05 59.3701 174.011 59.3807 173.099 59.2751C169.756 58.8881 166.536 58.7001 166.32 58.8794C165.677 59.4124 164.836 61.882 164.038 65.5772C163.143 69.7193 161.409 76.3144 161.139 76.6033C161.058 76.6899 160.992 76.894 160.992 77.058C160.992 77.2451 160.869 77.3552 160.661 77.3552C160.358 77.3552 160.331 77.4658 160.331 78.6872C160.331 79.8119 160.201 80.4496 159.498 82.7782C159.04 84.2958 158.11 88.1034 157.431 91.2397C156.752 94.376 156.015 97.4257 155.793 98.0163C155.571 98.6075 155.343 99.4488 155.286 99.886C155.196 100.584 155.139 100.675 154.823 100.63C154.464 100.579 154.463 100.565 154.357 95.1238C154.299 92.1239 154.171 89.1115 154.073 88.4296C153.823 86.6908 153.84 85.8527 154.134 85.5592C154.343 85.35 154.378 84.723 154.352 81.6632L154.322 78.0164H153.938C153.305 78.0164 153.364 76.3457 154.008 76.0255L154.463 75.7997L153.987 75.738L153.51 75.6762L153.618 74.0779C153.678 73.1988 153.845 70.843 153.99 68.843C154.302 64.5391 154.222 61.6572 153.753 60.2681L153.434 59.3226L153.907 59.4267C154.639 59.5871 154.52 59.0213 153.689 58.3827C152.961 57.8229 152.768 57.798 150.519 57.9735ZM4.77192 59.3507C1.30759 59.8594 0.791557 60.5113 0.692036 64.5041L0.622925 67.2727H1.0551C1.29285 67.2727 1.48774 67.3658 1.4882 67.4791C1.48866 67.593 1.59878 69.3594 1.73286 71.4052C1.86693 73.4504 2.31063 81.149 2.71793 88.5126C3.12569 95.8762 3.50396 102.473 3.55832 103.173L3.65738 104.445L2.96581 104.798L2.27423 105.151L2.37191 106.088C2.79211 110.121 2.61887 116.579 2.07473 117.181C1.86094 117.417 1.81809 118.015 1.81809 120.789C1.81809 122.826 1.75405 124.152 1.65269 124.215C1.40711 124.367 1.45272 125.308 1.71627 125.519C1.9858 125.735 2.22723 129.422 1.97198 129.422C1.76004 129.422 1.77801 129.976 1.99732 130.196C2.10652 130.305 2.21295 131.635 2.27008 133.617L2.36408 136.859H2.75248C3.13813 136.859 3.14043 136.848 3.14043 134.865C3.14043 132.889 3.14458 132.868 3.59841 132.486C3.85044 132.274 4.22364 131.765 4.42821 131.356C5.14605 129.919 6.28316 130.064 8.24916 131.844C9.40102 132.886 9.77007 134.447 8.8942 134.575C8.4717 134.637 7.93862 136.198 8.33992 136.198C8.47953 136.198 8.58089 136.64 8.65415 137.562C8.71313 138.312 8.8085 139.205 8.86517 139.545C8.94857 140.044 8.9177 140.165 8.70668 140.165C8.44313 140.165 8.36803 140.431 8.20585 141.942C8.13581 142.595 8.15885 142.644 8.52791 142.644C8.85964 142.644 8.92553 142.727 8.92553 143.141C8.92553 143.596 8.87899 143.636 8.35375 143.636H7.78196L7.73404 145C7.68613 146.363 7.68567 146.364 7.1489 146.6C6.72179 146.788 6.61167 146.934 6.61167 147.312C6.61167 147.587 6.54164 147.745 6.44627 147.686C6.3555 147.63 6.28086 147.148 6.28086 146.615C6.28086 145.308 6.18871 145.119 5.56072 145.146C5.17185 145.163 5.13453 145.187 5.41328 145.241C5.84868 145.325 5.99934 147.548 5.57869 147.677C4.67194 147.956 3.14043 147.906 3.14043 147.597C3.14043 147.419 3.21507 147.273 3.30584 147.273C3.53068 147.273 3.51455 146.289 3.27819 145.612C3.12799 145.181 3.13075 145.044 3.28971 144.991C3.97115 144.764 4.31072 144.175 4.66319 142.608C4.994 141.136 4.98202 140.419 4.636 140.979C4.4987 141.201 4.14992 141.186 2.7018 140.896L2.1807 140.791L2.27239 146.516C2.33505 150.414 2.29681 153.193 2.15167 155.228C1.98949 157.508 1.98488 158.246 2.13278 158.337C2.28022 158.429 2.2793 158.916 2.1291 160.401C1.98442 161.825 1.9812 162.376 2.11573 162.459C2.21894 162.523 2.32077 163.162 2.34795 163.92L2.39679 165.268L3.29063 164.907C4.05316 164.598 4.28353 164.393 4.86085 163.51L5.53722 162.474L7.28574 162.576L9.03426 162.677L9.74151 160.718C10.5441 158.498 10.64 158.341 10.8998 158.825C11.0021 159.017 11.232 159.174 11.4108 159.174C11.813 159.174 11.8384 159.667 11.4877 160.661C11.3513 161.047 11.2398 161.58 11.2398 161.844C11.2398 162.119 11.1334 162.365 10.992 162.42C10.7934 162.496 10.7436 162.856 10.7436 164.216V165.918L11.5702 166.116L12.3968 166.314V167.053C12.3968 167.719 12.3032 167.896 11.4463 168.854L10.4957 169.917L9.50422 169.919C8.9587 169.92 8.24225 169.966 7.91189 170.02L7.31154 170.119L7.70548 171.124C7.92203 171.677 8.09895 172.151 8.09895 172.178C8.09895 172.205 7.50874 172.525 6.78722 172.888L5.47502 173.547L3.64633 176.609L1.81809 179.671V180.827C1.81809 181.788 1.86371 181.984 2.08901 181.984C2.32169 181.984 2.34565 182.129 2.25857 183.017C1.95447 186.128 1.93098 187.942 2.19268 188.146C2.81422 188.63 3.05611 192.49 2.58661 194.428L2.3544 195.384L2.93309 195.626C3.25101 195.759 3.55832 195.868 3.61546 195.869C4.18355 195.874 4.95852 196.257 4.95852 196.533C4.95852 197.097 6.51952 197.223 10.7888 197.004C12.5368 196.915 14.9124 196.823 16.068 196.799L18.169 196.756L18.656 196.247C19.5973 195.262 19.6318 194.426 18.9283 189.669C18.5325 186.991 18.6025 185.454 19.1204 185.454C19.3254 185.454 19.3227 185.415 19.1029 185.195C18.7384 184.831 18.7173 177.422 19.078 176.4C19.3807 175.542 19.7309 172.619 19.5742 172.26C19.5079 172.108 19.395 169.529 19.3231 166.529C19.2513 163.529 19.1172 160.74 19.025 160.331C18.9329 159.921 18.8541 157.34 18.8499 154.595C18.8449 150.775 18.7864 149.386 18.6021 148.678C18.3703 147.788 18.403 147.16 18.7689 145.492C18.8744 145.01 19.3826 145.237 19.7037 145.911C19.8511 146.22 20.1423 146.434 20.621 146.586C21.4085 146.835 21.5306 147.198 20.9919 147.686C20.5777 148.06 20.569 148.367 20.9689 148.471C21.2329 148.541 21.2937 148.79 21.3956 150.226C21.5107 151.855 21.525 151.901 21.9139 151.901C22.3009 151.901 22.3138 151.941 22.3138 153.115V154.33L22.975 154.628L23.6362 154.926V156.223C23.6362 156.978 23.7057 157.52 23.8016 157.52C23.8974 157.52 23.967 158.045 23.967 158.764C23.967 159.908 23.9974 160.02 24.3452 160.152C24.6913 160.284 24.7392 160.454 24.912 162.173C25.1386 164.431 25.1944 164.595 25.7565 164.66C25.9979 164.688 26.209 164.822 26.2251 164.959C26.5292 167.494 26.6826 168.265 26.8835 168.265C27.042 168.265 27.1074 168.506 27.1074 169.091C27.1074 169.862 27.135 169.917 27.5207 169.917C27.9183 169.917 27.934 169.957 27.934 170.972C27.934 171.869 27.981 172.04 28.2473 172.109C28.5196 172.181 28.5758 172.419 28.6795 173.938C28.7969 175.663 28.8039 175.685 29.231 175.735C29.7 175.789 29.7705 176.003 30.2414 178.802C30.4096 179.8 30.4957 180 30.7588 180C31.0168 180 31.0744 180.121 31.0744 180.661C31.0744 181.025 31.1467 181.322 31.2352 181.322C31.4071 181.322 31.8263 182.656 31.9756 183.678C32.2313 185.428 32.2401 185.454 32.5695 185.454C32.8469 185.454 32.8925 185.571 32.8925 186.281C32.8925 187.04 32.9243 187.108 33.2846 187.108C33.6693 187.108 33.6785 187.145 33.7956 189.132C33.9223 191.296 34.2858 192.551 35.662 195.578L36.2444 196.86H38.7831C40.5736 196.86 41.3223 196.915 41.3223 197.048C41.3223 197.58 44.4397 196.758 47.7943 195.341L49.752 194.514V192.815V191.116L49.2687 191.019C48.8227 190.93 48.7794 190.856 48.6997 190.048C48.6522 189.567 48.4965 188.132 48.3541 186.86C48.2113 185.587 48.0957 184.229 48.0966 183.843C48.0984 183.369 48.0279 183.141 47.88 183.141C47.2083 183.141 46.6609 181.779 45.9537 178.347C45.3999 175.662 45.1331 174.848 44.776 174.754C44.5466 174.694 44.4627 174.523 44.4627 174.113C44.4627 173.67 44.3964 173.554 44.1434 173.554C43.7642 173.554 43.8554 173.86 42.8851 169.339C42.4557 167.339 42.0797 165.609 42.0493 165.496C42.0189 165.382 41.8056 165.289 41.5752 165.289C41.2333 165.289 41.1569 165.209 41.1569 164.853C41.1569 164.613 41.0555 164.334 40.9311 164.233C40.6915 164.039 40.1649 161.61 40.1653 160.702C40.1653 160.275 40.0976 160.165 39.8345 160.165C39.5484 160.165 39.5042 160.055 39.5042 159.339C39.5042 158.623 39.4599 158.512 39.1734 158.512C38.8725 158.512 38.843 158.402 38.843 157.273C38.843 156.143 38.8135 156.033 38.5122 156.033C38.2261 156.033 38.1818 155.923 38.1818 155.207C38.1818 154.49 38.1376 154.38 37.851 154.38C37.552 154.38 37.5207 154.27 37.5207 153.223C37.5207 152.551 37.4502 152.066 37.353 152.066C37.0825 152.066 36.5577 151.076 36.4402 150.344C36.3808 149.973 36.1873 149.555 36.0108 149.416C35.7671 149.223 35.6436 148.798 35.4985 147.647C35.316 146.203 35.287 146.129 34.8848 146.082C34.4148 146.028 34.0421 144.48 33.791 141.541C33.6818 140.261 33.6527 140.185 33.2427 140.084C32.1097 139.806 32.0659 139.704 32.0659 137.351V135.207H31.6531C31.2762 135.207 31.2398 135.144 31.2398 134.496C31.2398 134.105 31.1753 133.714 31.097 133.628C30.8173 133.32 30.5422 131.792 30.4561 130.064L30.3685 128.31L31.672 127.814C32.3889 127.54 33.4988 127.148 34.1393 126.943L35.3031 126.569L34.8829 125.35C34.3816 123.897 34.5622 123.927 31.7812 124.828L29.5954 125.537L29.5913 126.074C29.5885 126.423 29.5056 126.611 29.3554 126.611C29.2277 126.611 28.9808 126.37 28.8062 126.074C28.6034 125.731 28.2846 125.478 27.922 125.372C27.1175 125.137 27.1549 124.648 27.9989 124.356C28.8098 124.075 29.0909 123.843 29.0909 123.455C29.0909 123.04 29.747 122.734 31.3223 122.415C32.8409 122.109 33.3215 121.717 33.4919 120.65C33.5753 120.128 33.7923 119.815 34.5668 119.098L35.5372 118.199V116.644V115.088L36.5586 114.073C37.7363 112.902 38.2353 112.789 39.2333 113.466C39.7885 113.843 39.8345 113.85 39.8345 113.562C39.8345 113.391 39.9225 113.221 40.0299 113.186C40.1483 113.146 39.7276 112.296 38.9554 111.014L37.6861 108.908V106.783V104.658L36.6213 104.276C35.7975 103.981 35.5966 103.847 35.7325 103.683C35.9237 103.453 35.6187 102.48 35.3556 102.48C35.0391 102.48 34.6452 103.411 34.1982 105.219C33.6859 107.289 33.6656 107.342 33.1699 107.892C32.3571 108.795 32.0659 108.441 32.0659 106.55V104.835L31.6116 104.735C31.3615 104.681 31.0011 104.592 30.8104 104.537C30.4837 104.443 30.4584 104.516 30.3649 105.814C30.3031 106.667 30.0142 108.056 29.6051 109.47C29.242 110.724 28.8541 112.29 28.743 112.951L28.5408 114.153L27.0867 115.11C25.2999 116.286 24.6166 116.53 22.7686 116.649C21.5048 116.731 21.3223 116.782 21.3223 117.049C21.3223 117.266 21.2011 117.356 20.909 117.356C20.6058 117.356 20.4957 117.267 20.4957 117.025C20.4957 116.724 20.3856 116.694 19.2637 116.694H18.0317L17.9529 116.157C17.91 115.861 17.7948 111.901 17.6976 107.355C17.4728 96.8755 17.2544 93.0334 16.8356 92.1967C16.4605 91.4466 16.4509 91.2397 16.7909 91.2397C17.0277 91.2397 17.0425 90.433 16.9471 82.7685C16.8886 78.1094 16.901 73.8139 16.9743 73.2232L17.1074 72.1488L18.3473 72.0456C19.7553 71.9286 22.8796 70.5961 23.0685 70.0317C23.2252 69.5654 23.7873 69.453 25.0212 69.6405C26.2735 69.8308 26.5241 69.6995 26.7181 68.7531L26.8047 68.3329L28.8983 68.3919C31.5333 68.4661 31.3204 68.3536 31.5531 69.7944C31.6623 70.4703 31.8567 71.1739 31.9858 71.3577C32.247 71.7309 32.1604 71.9009 31.7079 71.9009C31.5411 71.9009 31.4048 71.9636 31.4048 72.0405C31.4048 72.2713 31.9899 72.7275 32.2857 72.7275C32.6078 72.7275 32.6248 72.9081 32.3838 73.7757C32.1678 74.5529 32.1687 74.5539 33.2537 74.6861C34.1112 74.7907 34.1374 74.8101 34.3517 75.486C34.5093 75.9849 34.671 76.1932 34.9299 76.2296C35.4312 76.301 35.498 77.0603 35.0525 77.6266C34.6502 78.1385 34.6203 78.3472 34.9506 78.3472C35.2331 78.3472 36.2817 80.1759 36.443 80.9504C36.555 81.4871 36.5545 81.4876 35.8809 81.4876C35.3916 81.4876 35.2068 81.5558 35.2068 81.7355C35.2068 81.9276 35.4248 81.9834 36.1794 81.9834H37.1525L37.2673 82.7487C37.5202 84.4354 37.1852 88.5946 36.7959 88.5996C36.4886 88.6033 36.5195 88.672 37.0516 89.1668C38.0551 90.1003 38.0422 91.0255 37.018 91.6309C36.4471 91.9677 36.3637 92.6726 36.777 93.6618C36.9134 93.988 37.0249 94.2834 37.0249 94.3175C37.0249 94.352 36.3154 94.3801 35.4487 94.3801C33.3979 94.3801 33.4896 94.6234 36.0426 95.9554C37.0553 96.4834 37.9685 97.052 38.0726 97.2183C38.2201 97.4542 38.4698 97.5206 39.2134 97.5206C40.1183 97.5206 40.1653 97.5408 40.1653 97.9339C40.1653 98.3352 40.1985 98.3471 41.3223 98.3471H42.4792V98.813C42.4792 99.5548 42.0244 100.866 41.5803 101.405L41.1711 101.901L40.9574 101.349C40.7592 100.837 40.7026 100.804 40.1653 100.892C39.847 100.945 39.4194 100.989 39.2148 100.99C38.9287 100.991 38.843 101.087 38.843 101.405C38.843 101.632 38.9255 101.818 39.0264 101.818C39.1268 101.818 39.5793 101.986 40.0317 102.19L40.8542 102.562L40.7514 103.35C40.6952 103.783 40.4376 104.675 40.1792 105.333C39.3807 107.366 39.3802 107.438 40.1653 107.438H40.833L40.4994 108.093C40.0174 109.037 40.052 109.091 41.1417 109.091H42.1175L42.2101 109.876C42.5331 112.617 42.4649 112.397 42.9906 112.397C43.2551 112.397 43.4712 112.469 43.4712 112.558C43.4712 112.646 43.6942 112.834 43.9669 112.975C44.4263 113.213 44.4627 113.298 44.4627 114.136V115.041H42.8925C42.0291 115.041 41.3241 115.097 41.326 115.165C41.3278 115.233 41.4992 116.275 41.7065 117.48L42.0843 119.669H41.7392C41.5494 119.669 40.9878 119.564 40.4906 119.435C39.9939 119.306 39.582 119.213 39.5756 119.229C39.5691 119.244 39.4475 119.665 39.3051 120.165C39.1628 120.665 38.872 121.535 38.6587 122.097C38.1864 123.343 38.204 123.364 39.6106 123.194C40.5593 123.079 40.7473 123.005 40.7864 122.727C40.8118 122.545 40.9159 121.969 41.0177 121.446L41.202 120.496H41.83H42.458L44.1079 117.314C46.5784 112.551 46.9392 111.111 46.941 106.012L46.942 103.181L46.4462 102.975C45.6745 102.656 45.6781 100.992 46.4503 100.992C47.3156 100.992 47.9717 98.1771 47.3474 97.1451C47.0498 96.6525 47.0286 96.3388 47.0724 93.0578C47.1267 88.983 47.0986 88.7604 46.5314 88.7604H46.1274L46.4522 88.003C46.8489 87.0778 46.8484 87.1073 46.4563 87.1073C46.0191 87.1073 45.874 86.061 46.0117 83.9001C46.4402 77.1773 46.531 77.6823 44.0835 73.1339C40.9574 67.3234 40.9223 67.2727 40.069 67.2727C39.3816 67.2727 39.3236 67.2331 38.7882 66.4052L38.2279 65.5371L35.5422 64.7188C32.7501 63.8683 32.5479 63.7462 32.3074 62.7685C32.2235 62.4266 32.095 62.3142 31.7904 62.3142C31.5674 62.3142 30.7606 62.0161 29.9972 61.6517C29.2342 61.2872 28.2344 60.9025 27.7759 60.797C27.0682 60.6334 26.942 60.5463 26.942 60.2197C26.942 59.8727 26.8674 59.8345 26.1864 59.8345C25.7173 59.8345 25.3317 59.7354 25.1691 59.5728C24.9622 59.3659 24.7143 59.3346 23.9826 59.4235C23.474 59.4857 22.4258 59.5143 21.6531 59.4875C18.0694 59.3641 15.4815 59.4221 15.4133 59.6281C15.3022 59.9621 11.9549 59.9124 11.6144 59.5719C11.4186 59.376 11.1799 59.336 10.6759 59.4152C9.64383 59.5769 9.07112 59.5645 8.3473 59.3641C7.59352 59.1558 6.1348 59.1503 4.77192 59.3507ZM174.01 62.0544C174.746 62.7906 173.009 63.2518 170.912 62.8777C170.228 62.7561 169.432 62.6538 169.142 62.6506C168.327 62.6413 168.317 61.7811 169.122 60.8905L169.437 60.5413L171.684 61.2586C172.92 61.653 173.967 62.011 174.01 62.0544ZM14.8737 62.7782C14.8751 62.991 14.8028 63.115 14.7106 63.0578C14.6199 63.0016 14.5466 62.7183 14.548 62.4285C14.5498 62.0267 14.589 61.9599 14.7106 62.1488C14.7991 62.2852 14.8719 62.5685 14.8737 62.7782ZM147.755 63.9558C147.58 65.0648 147.373 65.3966 146.613 65.7845C145.716 66.2421 145.62 66.2098 145.62 65.4546C145.62 64.8594 145.661 64.7935 146.033 64.7935C146.419 64.7935 146.447 64.7382 146.447 63.9669V63.1403H147.165H147.884L147.755 63.9558ZM148.717 68.4453C149.133 68.9816 149.475 69.6225 149.532 69.9736L149.63 70.5786H148.947H148.265V69.9174C148.265 69.3221 148.223 69.2562 147.851 69.2562C147.46 69.2562 147.438 69.2074 147.438 68.3352C147.438 67.1451 147.726 67.17 148.717 68.4453ZM64.4627 68.1025C64.4627 68.6573 63.884 68.6725 63.2643 68.1339C62.8063 67.7358 62.9201 67.6031 63.719 67.6031C64.4364 67.6031 64.4627 67.6211 64.4627 68.1025ZM62.7786 69.6695C62.8068 69.9423 63.0113 70.6984 63.2329 71.3499C63.7812 72.9611 63.8185 72.8924 62.3967 72.8924C61.4052 72.8924 61.1568 72.8431 61.1568 72.6445C61.1568 72.5082 61.0605 72.3967 60.9421 72.3967C60.4136 72.3967 60.3593 72.0368 60.7578 71.1808C60.9758 70.7131 61.1545 70.0478 61.1554 69.7018L61.1568 69.0729L61.9419 69.1231C62.6796 69.1705 62.7303 69.2037 62.7786 69.6695ZM23.0579 70.9241L22.2313 71.225L23.0994 71.2324C23.8592 71.2388 23.967 71.1987 23.967 70.9089C23.967 70.7274 23.9485 70.5882 23.9255 70.6007C23.9029 70.6127 23.5122 70.7583 23.0579 70.9241ZM26.3863 71.5765C26.2232 71.8525 25.798 72.2718 25.4413 72.5077C24.524 73.115 24.6212 73.3647 25.909 73.7093C26.6729 73.9134 26.7112 73.9987 26.4108 74.8299C26.1919 75.4343 26.6775 76.0536 27.5622 76.2973C27.8939 76.3885 27.934 76.5037 27.934 77.3732C27.934 78.2371 27.9713 78.3472 28.2643 78.3472C28.5371 78.3472 28.5951 78.4573 28.5951 78.9752C28.5951 79.3207 28.6615 79.6741 28.7426 79.7603C28.9499 79.981 29.3715 82.0046 29.5065 83.4296C29.6134 84.5525 29.6452 84.628 30.017 84.628C30.5035 84.628 30.5026 84.6737 29.9963 85.7025C29.4715 86.7696 29.4825 87.0585 30.0838 87.9666C30.6256 88.7849 30.9896 90.7329 30.815 91.8806C30.7307 92.4367 30.9652 94.6566 31.1255 94.8169C31.6135 95.3048 32.7271 93.3015 32.7271 91.9359C32.7271 91.5129 32.8091 91.3526 33.0579 91.2876C33.4486 91.1853 33.4767 91.0232 33.151 90.7527C33.0206 90.6444 32.8658 90.3376 32.8073 90.0713C32.7335 89.7349 32.6013 89.5866 32.3751 89.5866C32.0853 89.5866 32.0544 89.4893 32.0986 88.719L32.1489 87.8514L33.2643 87.8026C34.5668 87.7454 34.541 87.8085 34.0315 85.9204C33.6983 84.6861 33.6615 84.628 33.2049 84.628H32.7271V82.4791V80.3307H31.9835H31.2398V79.6944C31.2398 79.3442 31.1914 78.4895 31.1329 77.7943L31.026 76.5305L29.9345 75.9241C26.4997 74.0176 25.9809 73.3343 26.6858 71.6475C26.9812 70.9407 26.7886 70.8951 26.3863 71.5765ZM16.3638 74.6281C16.3638 75.4984 15.5238 75.7947 15.311 74.9999C15.0732 74.1129 15.17 73.8844 15.7851 73.8844C16.3605 73.8844 16.3638 73.8881 16.3638 74.6281ZM67.3497 89.711C67.4409 90.1385 67.411 90.2477 67.2032 90.2477C67.0014 90.2477 66.9433 90.0703 66.947 89.4626C66.9525 88.6213 67.1419 88.7383 67.3497 89.711ZM59.4221 90.8679C59.3691 91.2088 59.1862 91.841 59.0158 92.2727L58.7061 93.0578H59.1051C59.4207 93.0578 59.5041 93.1444 59.5041 93.4711C59.5041 94.634 61.0863 93.2334 61.6319 91.5871C61.9608 90.5942 61.5964 90.2477 60.2224 90.2477C59.5373 90.2477 59.5166 90.2639 59.4221 90.8679ZM43.978 97.2022C43.6992 97.4358 43.4712 97.7523 43.4712 97.9044C43.4712 98.1025 43.3293 98.1817 42.9754 98.1817H42.4792V96.9423C42.4792 95.8734 42.5193 95.702 42.7685 95.6983C42.9275 95.6956 43.3555 95.5596 43.7191 95.3961L44.3802 95.098L44.4328 95.9375C44.4802 96.7014 44.4397 96.8152 43.978 97.2022ZM30.8528 96.3222C30.3732 97.2699 30.4063 98.2725 30.9408 98.9991C31.4273 99.6607 31.4748 100.288 31.132 101.529C31.0633 101.778 31.1739 101.818 31.9342 101.818H32.8156L33.0961 100.785C33.2505 100.217 33.4905 99.3875 33.6301 98.9415C33.879 98.1458 33.878 98.1361 33.567 98.4176C33.3173 98.6439 33.1795 98.666 32.9132 98.5231C32.7271 98.4241 32.4792 98.3623 32.3622 98.3863C32.095 98.4407 32.1627 97.4266 32.4875 96.5055L32.7128 95.8679H31.8978C31.1749 95.8679 31.0569 95.919 30.8528 96.3222ZM37.9492 99.0378C37.4953 100.139 37.4465 100.992 37.8367 100.992C38.0266 100.992 38.1818 100.921 38.1818 100.834C38.1818 100.747 38.3712 100.397 38.6025 100.056C39.1181 99.2958 39.0946 98.619 38.5504 98.5416C38.2579 98.5001 38.1252 98.6098 37.9492 99.0378ZM167.721 100.268L168.087 100.366L167.677 101.175C167.107 102.299 166.79 102.191 166.525 100.782C166.401 100.12 166.696 99.9929 167.721 100.268ZM167.203 103.204C167.351 103.42 165.865 107.281 165.65 107.239C165.038 107.122 164.97 104.921 165.543 103.79C165.919 103.048 166.868 102.713 167.203 103.204ZM62.8726 113.099C62.9371 113.369 62.9132 113.554 62.8132 113.554C62.7206 113.554 62.6446 113.318 62.6446 113.03C62.6446 112.428 62.7169 112.45 62.8726 113.099ZM21.7978 121.462C21.4149 122.383 21.1569 122.56 21.1569 121.901C21.1569 121.593 21.0698 121.488 20.815 121.488C20.5547 121.488 20.4856 121.399 20.5257 121.116C20.5704 120.801 21.7213 120.419 22.1093 120.59C22.1327 120.601 21.9927 120.993 21.7978 121.462ZM24.6281 120.661C24.6281 120.752 24.4793 120.826 24.2973 120.826C24.0706 120.826 23.967 120.936 23.967 121.177C23.967 121.459 23.9214 121.49 23.7361 121.336C23.3505 121.016 23.6076 120.496 24.1517 120.496C24.4134 120.496 24.6281 120.57 24.6281 120.661ZM62.9754 127.273V128.926H62.0548C61.178 128.926 61.1398 128.908 61.2462 128.553C61.5867 127.418 62.5685 125.624 62.8514 125.621C62.9196 125.62 62.9754 126.364 62.9754 127.273ZM64.6976 130.554C64.8317 130.813 65.0266 131.362 65.1303 131.775L65.3196 132.526L64.3622 133.453C63.0883 134.687 62.798 134.675 62.78 133.388L62.7708 132.727H62.0562C61.202 132.727 61.1025 132.609 61.3476 131.879C61.8254 130.456 64.1682 129.529 64.6976 130.554ZM25.6938 132.388C25.9505 132.656 26.355 132.897 26.5927 132.925C26.9733 132.969 27.0309 133.059 27.0756 133.678C27.1355 134.506 27.3267 134.551 28.7403 134.063L29.6291 133.755L29.5457 134.792C29.4305 136.228 29.0103 136.921 28.3473 136.77C27.0208 136.468 26.2297 136.382 24.6899 136.374C22.7234 136.362 22.6962 136.343 22.4322 134.802L22.247 133.719H21.684C20.7805 133.719 21.3942 132.207 22.376 132.015C23.7794 131.74 25.2289 131.902 25.6938 132.388ZM5.9717 139.571C5.74778 140.46 5.73948 140.661 5.92747 140.661C6.06431 140.661 6.33292 139.005 6.21543 138.888C6.1841 138.856 6.07399 139.163 5.9717 139.571ZM7.31108 141.322C7.31108 141.64 7.34518 141.771 7.38664 141.611C7.42811 141.452 7.42811 141.192 7.38664 141.033C7.34518 140.874 7.31108 141.004 7.31108 141.322ZM6.4048 143.03C6.20714 143.513 6.24815 144.562 6.45686 144.353C6.55362 144.256 6.60937 143.851 6.5808 143.452C6.54394 142.938 6.4928 142.815 6.4048 143.03ZM63.379 145.326C63.7333 145.831 63.7034 145.95 63.2233 145.95C62.874 145.95 62.81 145.873 62.81 145.454C62.81 144.867 63.0233 144.818 63.379 145.326ZM166.975 155.271C166.732 155.683 166.443 155.905 165.962 156.049C165.492 156.19 165.289 156.342 165.289 156.555C165.289 156.925 165.282 156.925 166.486 156.587C167.435 156.321 167.467 156.323 167.937 156.67C168.201 156.865 168.531 157.025 168.671 157.025C168.876 157.025 168.926 157.252 168.926 158.2C168.926 159.234 168.893 159.362 168.646 159.267C167.417 158.795 163.499 158.873 160.191 159.435L158.482 159.725L158.583 160.234C158.673 160.686 162.139 173.324 162.687 175.198C162.861 175.793 163.027 175.998 163.559 176.273L164.215 176.614L164.327 177.935C164.457 179.476 164.928 181.862 165.126 181.985C165.201 182.031 165.287 182.326 165.317 182.641C165.36 183.083 165.503 183.296 165.95 183.584C167.391 184.508 167.273 184.23 167.273 186.702C167.273 188.772 167.294 188.926 167.585 188.926C167.816 188.926 167.926 189.087 168.009 189.545C168.216 190.696 168.481 191.405 168.704 191.405C168.979 191.405 168.995 191.931 168.727 192.198C168.573 192.353 168.573 192.396 168.727 192.396C168.87 192.396 168.926 192.922 168.926 194.266V196.134L169.674 196.662C170.086 196.953 170.607 197.19 170.833 197.19C172.401 197.19 183.361 195.217 183.706 194.872C183.951 194.628 183.539 193.928 182.983 193.64C182.482 193.382 182.479 193.372 182.479 191.983V190.585L181.844 190.261C181.306 189.987 181.164 189.796 180.919 189.018L180.63 188.099H179.808C178.843 188.099 178.613 187.41 179.542 187.303C180.501 187.193 181.296 184.463 180.368 184.463C180.075 184.463 179.669 182.978 179.669 181.905C179.669 181.598 179.582 181.487 179.339 181.487C179.028 181.487 179.008 181.377 179.008 179.669C179.008 177.961 178.988 177.851 178.678 177.851C178.388 177.851 178.347 177.741 178.347 176.962C178.347 176.14 178.303 176.039 177.769 175.631C177.399 175.349 177.19 175.051 177.19 174.804C177.19 174.558 177.071 174.387 176.86 174.332C176.553 174.252 176.529 174.107 176.529 172.355C176.529 170.704 176.489 170.428 176.213 170.179C176.04 170.021 175.854 169.72 175.801 169.509C175.704 169.122 174.996 168.76 174.338 168.76C174.075 168.76 174.033 168.682 174.117 168.347C174.642 166.258 174.3 163.831 173.344 162.851C172.52 162.008 171.808 161.886 171.638 162.562C171.323 163.818 168.992 162.721 168.037 160.868L167.76 160.331H168.756C169.642 160.331 169.752 160.367 169.752 160.661C169.752 160.962 169.862 160.992 170.992 160.992H172.232V159.835V158.678H171.494H170.758L170.709 157.398L170.661 156.118L169.803 155.811C169.173 155.584 168.931 155.408 168.893 155.148C168.796 154.463 167.398 154.553 166.975 155.271ZM162.006 155.873C161.792 156.052 161.476 156.198 161.304 156.198C161.068 156.198 160.992 156.318 160.992 156.69C160.992 157.144 160.955 157.174 160.516 157.086C160.075 156.998 160.045 157.023 160.122 157.421C160.24 158.042 164.132 157.632 164.132 156.999C164.132 156.922 164.318 156.859 164.545 156.859C165.452 156.859 165.024 156.284 163.831 155.9C162.479 155.465 162.497 155.465 162.006 155.873ZM26.6116 156.777V157.52H25.6197C24.6724 157.52 24.6281 157.502 24.6281 157.108C24.6281 156.839 24.7207 156.694 24.8912 156.694C25.0359 156.694 25.3437 156.546 25.5745 156.364C26.3002 155.793 26.6116 155.917 26.6116 156.777ZM158.347 157.438C158.347 157.818 158.408 157.851 159.091 157.851C159.774 157.851 159.835 157.818 159.835 157.438C159.835 157.058 159.774 157.025 159.091 157.025C158.408 157.025 158.347 157.058 158.347 157.438ZM29.8613 160.433C29.3789 160.694 29.1397 160.653 29.3319 160.342C29.3918 160.244 29.641 160.168 29.8857 160.172L30.3308 160.178L29.8613 160.433ZM35.868 163.348C35.868 164.263 35.393 164.628 34.2065 164.628C33.9582 164.628 33.884 164.709 33.9412 164.917C33.9849 165.077 34.0674 165.483 34.1241 165.82C34.1895 166.21 34.5014 166.754 34.9751 167.308L35.7224 168.182L34.8447 168.265L33.967 168.347L33.9163 169.05L33.8651 169.752H34.8663C35.4238 169.752 35.868 169.826 35.868 169.917C35.868 170.008 35.7611 170.083 35.6307 170.083C35.4957 170.083 35.3713 170.277 35.3414 170.533C35.2713 171.138 33.7191 171.811 33.7191 171.237C33.7191 170.983 33.6071 170.909 33.2233 170.909H32.7271V169.587V168.265H33.2233C33.7131 168.265 33.7191 168.254 33.7191 167.367C33.7191 166.415 33.7481 166.447 32.6842 166.21C32.2585 166.115 31.1325 164.845 31.3135 164.664C31.3555 164.622 31.7406 164.523 32.1701 164.443C33.1252 164.264 33.5034 163.941 33.726 163.114L33.8969 162.479H34.8825H35.868V163.348ZM30.8348 163.383C31.1868 164.225 31.1472 164.298 30.3308 164.298C29.6475 164.298 29.5867 164.264 29.5867 163.884C29.5867 163.554 29.6696 163.471 30 163.471C30.3031 163.471 30.4132 163.383 30.4132 163.141C30.4132 162.65 30.5653 162.738 30.8348 163.383ZM13.2644 163.986C13.7868 164.2 13.8748 164.628 13.3966 164.628C13.2192 164.628 13.0146 164.728 12.9423 164.85C12.8695 164.973 12.5682 165.12 12.2728 165.177L11.7356 165.281V164.387V163.494L12.2728 163.646C12.5682 163.73 13.0146 163.883 13.2644 163.986ZM6.77708 165.785C6.77708 166.253 6.81348 166.281 7.43779 166.281C8.06255 166.281 8.09895 166.253 8.09895 165.785C8.09895 165.317 8.06255 165.289 7.43779 165.289C6.81348 165.289 6.77708 165.317 6.77708 165.785ZM3.14043 166.859C3.14043 167.19 3.05796 167.273 2.72714 167.273C2.34196 167.273 2.31385 167.328 2.31385 168.095V168.917L2.85108 168.813C3.14688 168.756 3.68595 168.624 4.04948 168.521L4.71064 168.334L4.7604 167.39L4.8097 166.446H3.9753C3.19526 166.446 3.14043 166.473 3.14043 166.859ZM2.95291 170.95C2.8133 171.519 2.64144 172.114 2.57141 172.273C2.47281 172.497 2.52211 172.562 2.79211 172.562C3.05335 172.562 3.14043 172.665 3.14043 172.975C3.14043 173.58 4.78897 173.621 4.80049 173.017C4.80694 172.685 5.00183 172.06 5.3672 171.199C5.46166 170.976 5.41005 170.909 5.14144 170.909C4.95023 170.909 4.79358 170.849 4.79358 170.775C4.79358 170.455 4.08403 169.917 3.66291 169.917C3.24041 169.917 3.18789 169.994 2.95291 170.95ZM87.3874 172.934C87.3229 173.415 87.1534 173.756 86.8497 174.017L86.406 174.399L86.947 175.588C87.2446 176.242 87.5022 176.796 87.5192 176.819C87.6054 176.938 88.5808 176.474 88.6559 176.279C88.7038 176.153 89.0258 176.002 89.3714 175.941C90.6163 175.723 91.9493 174.711 90.9918 174.711C90.7647 174.711 90.5785 174.636 90.5785 174.545C90.5785 174.455 90.2067 174.38 89.752 174.38C88.8056 174.38 88.7508 174.256 89.1737 173.058C89.3101 172.672 89.4216 172.327 89.4216 172.293C89.4216 172.259 88.9848 172.232 88.4513 172.232H87.4814L87.3874 172.934ZM92.1313 173.59C92.2616 174.241 92.3598 174.345 93.0279 174.537L93.5536 174.688V173.873V173.058H92.7892H92.0248L92.1313 173.59ZM87.4049 181.694C87.2736 183.05 87.4441 184.132 87.7892 184.132C87.9892 184.132 88.0993 184.015 88.0993 183.802C88.0993 183.559 88.2094 183.471 88.5126 183.471C88.8153 183.471 88.9254 183.383 88.9254 183.141C88.9254 182.898 88.8153 182.81 88.5126 182.81C88.1219 182.81 88.0993 182.76 88.0993 181.901C88.0993 180.694 87.5183 180.521 87.4049 181.694ZM174.941 181.946C174.842 182.109 174.798 182.731 174.84 183.388L174.913 184.545L174.432 184.092C174.167 183.842 173.564 183.523 173.091 183.383C172.045 183.072 171.823 182.297 172.686 181.967C174.372 181.321 175.329 181.312 174.941 181.946ZM171.57 184.628C171.57 184.719 171.352 184.793 171.084 184.793C170.817 184.793 170.552 184.719 170.496 184.628C170.435 184.53 170.632 184.463 170.982 184.463C171.305 184.463 171.57 184.537 171.57 184.628ZM11.0744 185.041C11.0744 185.344 11.1624 185.454 11.4048 185.454C11.6955 185.454 11.7356 185.565 11.7356 186.363V187.273H11.1569H10.5787V185.95C10.5787 184.885 10.6266 184.628 10.8266 184.628C10.9809 184.628 11.0744 184.784 11.0744 185.041ZM15.3718 186.033V187.273H14.871C14.196 187.273 14.1094 186.952 14.4664 185.773C14.9286 184.247 15.3718 184.374 15.3718 186.033ZM97.2704 186.759C97.3796 187.553 97.3671 187.583 96.6438 188.306C96.2383 188.712 95.8084 189.315 95.6887 189.646L95.4707 190.248H93.9337H92.3966V189.752C92.3966 189.288 92.4372 189.256 93.0237 189.256C93.6314 189.256 93.6568 189.233 93.8595 188.474C94.4373 186.315 97.0299 185.012 97.2704 186.759ZM91.7967 186.487C91.9631 187.109 91.9138 187.438 91.653 187.438C91.4738 187.438 91.4051 187.255 91.4051 186.777C91.4051 186.059 91.6364 185.889 91.7967 186.487ZM176.234 187.396C176.816 188.277 177.219 189.089 177.159 189.26C176.992 189.737 174.772 188.172 174.279 187.232L174.041 186.777H174.932C175.779 186.777 175.844 186.808 176.234 187.396ZM6.77708 193.281C6.77708 193.977 6.40111 194.539 5.86987 194.638C4.97603 194.806 4.76363 194.703 5.00644 194.22C5.37826 193.479 6.77708 192.738 6.77708 193.281ZM104.126 194.027C104.243 194.436 104.224 194.545 104.038 194.545C103.876 194.545 103.801 194.355 103.801 193.939C103.801 193.247 103.911 193.277 104.126 194.027Z" fill="#FBFBFB"/>
</svg>
